<?xml version="1.0" standalone="no"?>
<!DOCTYPE svg PUBLIC "-//W3C//DTD SVG 20010904//EN"
 "http://www.w3.org/TR/2001/REC-SVG-20010904/DTD/svg10.dtd">
<svg version="1.0" xmlns="http://www.w3.org/2000/svg"
 width="1000.000000pt" height="1000.000000pt" viewBox="0 0 1000.000000 1000.000000"
 preserveAspectRatio="xMidYMid meet">
<metadata>
Created by potrace 1.14, written by Peter Selinger 2001-2017
</metadata>
<g transform="translate(0.000000,1000.000000) scale(0.100000,-0.100000)"
fill="#000000" stroke="none">
<path d="M1778 6739 c15 -17 16 -37 0 -21 -8 8 -16 8 -32 0 -20 -10 -20 -10
-6 7 14 17 14 17 -6 7 -12 -6 -24 -8 -28 -5 -3 3 -6 0 -6 -8 0 -11 -2 -11 -10
1 -7 11 -10 11 -10 2 0 -7 -5 -10 -10 -7 -6 4 -7 12 -4 18 4 7 5 10 1 7 -3 -3
-6 -9 -7 -15 -1 -5 -7 -17 -13 -25 -10 -13 -10 -13 6 -1 12 9 17 10 17 2 0 -7
5 -9 12 -5 7 4 8 3 4 -5 -4 -6 -13 -9 -19 -5 -7 3 -3 -2 7 -10 23 -19 14 -21
-17 -4 -19 10 -20 9 -10 -4 10 -11 10 -17 0 -28 -10 -12 -9 -12 4 -2 14 10 18
10 23 -3 3 -9 2 -13 -3 -10 -5 3 -12 1 -16 -5 -3 -6 4 -11 17 -11 18 -1 19 -2
5 -6 -17 -4 -17 -7 -3 -28 10 -16 12 -26 5 -30 -7 -5 -6 -11 1 -20 8 -9 8 -15
0 -20 -13 -8 -9 -65 5 -65 5 0 3 -4 -5 -9 -8 -6 -17 -8 -21 -5 -4 2 -11 -1
-15 -7 -4 -7 -3 -9 3 -6 6 4 14 -4 17 -18 4 -16 11 -23 18 -19 7 4 8 3 4 -5
-4 -6 -12 -9 -17 -6 -5 4 -9 2 -9 -4 0 -5 8 -15 18 -20 11 -7 12 -10 3 -11 -8
0 -11 -6 -7 -16 3 -8 2 -12 -3 -9 -5 3 -12 1 -16 -5 -3 -6 4 -11 17 -11 18 -1
19 -2 5 -6 -17 -4 -17 -7 -3 -28 10 -16 12 -26 5 -30 -6 -5 -7 -11 0 -18 6 -8
5 -18 -4 -31 -11 -14 -12 -24 -3 -40 l11 -21 -24 20 c-13 11 -18 13 -12 4 10
-12 10 -18 0 -28 -9 -10 -9 -11 4 -6 9 3 22 -2 30 -11 9 -12 10 -15 2 -10 -8
4 -13 2 -13 -8 0 -8 5 -18 10 -21 17 -10 -1 -27 -22 -22 -15 4 -17 3 -8 -8 7
-8 17 -13 22 -12 18 4 20 -20 2 -27 -15 -6 -15 -4 -3 11 13 16 12 17 -3 4 -14
-11 -18 -11 -18 -1 0 8 -3 10 -6 7 -4 -4 -2 -13 5 -21 9 -11 9 -15 -1 -19 -10
-4 -10 -6 1 -6 11 -1 11 -4 0 -18 -10 -11 -10 -14 -1 -9 15 9 15 1 2 -24 -8
-16 -8 -18 5 -14 8 3 13 10 10 14 -3 5 -1 11 4 14 5 4 8 -2 7 -11 -2 -10 2
-22 8 -26 7 -5 3 -6 -8 -3 -17 6 -17 5 -5 -11 8 -9 9 -14 4 -11 -6 4 -17 -3
-25 -15 -12 -20 -11 -21 2 -9 13 10 17 10 22 -3 3 -9 2 -13 -3 -10 -5 3 -12 1
-16 -5 -3 -6 4 -11 17 -11 18 -1 19 -2 5 -6 -17 -4 -17 -7 -3 -28 10 -16 12
-26 5 -30 -7 -5 -6 -11 1 -20 8 -10 8 -15 0 -20 -6 -4 -9 -14 -6 -22 5 -11 2
-13 -10 -9 -10 4 -14 1 -12 -6 3 -7 10 -13 15 -13 6 0 15 -4 20 -9 5 -5 3 -6
-4 -2 -16 9 -18 -60 -3 -69 17 -10 -1 -27 -22 -22 -16 4 -17 3 -7 -9 6 -7 15
-12 19 -9 5 3 12 1 15 -5 4 -6 3 -10 -2 -9 -20 3 -23 -3 -12 -23 l12 -23 -24
20 c-13 11 -18 13 -12 4 10 -12 10 -18 0 -28 -9 -10 -9 -11 4 -6 9 3 22 -2 30
-11 9 -12 10 -15 2 -10 -8 4 -13 2 -13 -8 0 -8 5 -18 10 -21 17 -10 -1 -27
-23 -21 -15 4 -17 2 -8 -7 7 -7 17 -12 23 -12 19 0 20 -22 2 -29 -15 -6 -15
-4 -3 11 13 16 12 17 -3 4 -14 -11 -18 -11 -18 -1 0 8 -3 10 -6 7 -4 -4 -2
-13 5 -21 9 -11 9 -15 -1 -19 -10 -4 -10 -6 1 -6 11 -1 11 -4 0 -18 -10 -11
-10 -14 -1 -9 15 9 15 1 2 -24 -8 -16 -8 -18 5 -14 8 3 13 10 10 14 -3 5 -1
11 4 14 5 4 8 -2 7 -11 -2 -10 2 -22 8 -26 7 -5 3 -6 -8 -3 -17 6 -17 5 -5
-11 8 -9 9 -14 4 -11 -6 4 -17 -3 -25 -15 -12 -20 -11 -21 2 -9 13 10 17 10
22 -3 3 -9 2 -13 -3 -10 -5 3 -12 1 -16 -5 -3 -6 4 -11 17 -11 18 -1 19 -2 5
-6 -17 -4 -17 -7 -3 -28 10 -16 12 -26 5 -30 -7 -5 -6 -11 1 -20 8 -10 8 -15
0 -20 -6 -4 -9 -14 -6 -22 5 -11 2 -13 -10 -9 -10 4 -14 1 -12 -6 3 -7 10 -13
16 -13 5 0 14 -4 19 -9 5 -5 3 -6 -4 -2 -16 9 -18 -60 -3 -69 17 -10 -1 -27
-22 -22 -16 4 -17 3 -7 -9 6 -7 15 -12 19 -9 5 3 11 1 14 -4 4 -5 -4 -8 -17
-7 -13 2 -24 -2 -24 -9 0 -7 11 -11 24 -9 18 2 22 -1 14 -10 -7 -9 -7 -17 2
-26 10 -10 9 -11 -2 -5 -11 6 -13 2 -9 -18 4 -18 1 -24 -9 -20 -7 3 -11 9 -8
13 3 5 1 11 -4 14 -12 8 -8 -18 5 -35 20 -26 28 -42 16 -35 -6 3 -13 2 -17 -4
-3 -5 2 -10 12 -11 14 0 14 -2 -4 -9 -30 -12 -29 -18 3 -14 19 2 23 -1 15 -10
-7 -9 -7 -17 2 -26 10 -10 9 -11 -2 -5 -11 6 -13 2 -9 -18 4 -18 1 -24 -9 -20
-7 3 -11 9 -8 13 3 5 1 11 -4 14 -12 8 -8 -18 5 -35 20 -26 28 -42 16 -35 -6
3 -13 2 -17 -4 -3 -5 2 -10 12 -11 10 0 13 -3 6 -6 -10 -3 -10 -10 -1 -26 l11
-22 -24 20 c-13 11 -18 13 -12 4 10 -12 10 -18 0 -28 -9 -10 -9 -11 4 -6 9 3
22 -2 30 -11 9 -12 10 -15 2 -10 -7 4 -13 3 -13 -3 0 -5 4 -12 9 -15 11 -7 9
-32 -4 -43 -4 -4 -5 -2 0 6 5 9 4 12 -3 7 -7 -4 -9 1 -7 15 3 17 2 19 -10 9
-26 -22 7 -58 36 -39 8 5 21 9 29 8 9 0 6 -5 -9 -13 -20 -11 -21 -14 -7 -19
10 -4 15 -3 11 3 -9 14 8 12 24 -2 11 -11 12 -10 5 2 -11 20 -13 50 -2 44 4
-3 8 -13 8 -22 0 -15 2 -15 10 -2 8 13 10 13 10 -2 0 -9 4 -20 10 -23 6 -4 7
1 3 12 -6 16 -5 16 10 4 10 -8 17 -9 17 -3 0 6 -8 16 -17 22 -16 10 -15 10 4
5 12 -3 24 -1 28 5 5 8 11 8 21 -1 7 -6 11 -15 8 -20 -3 -5 2 -6 10 -3 9 3 13
11 9 18 -4 7 -1 7 9 -1 8 -7 18 -10 21 -6 4 3 7 1 7 -5 0 -7 5 -12 11 -12 5 0
7 5 3 11 -4 7 -1 10 7 7 8 -3 13 -11 11 -17 -1 -7 2 -9 8 -6 6 4 9 13 6 21 -3
7 0 16 6 20 6 4 8 3 5 -3 -4 -6 1 -19 9 -29 13 -16 15 -16 10 -2 -3 10 0 20 6
24 7 4 8 3 4 -4 -4 -7 -3 -12 3 -12 5 0 12 4 15 9 3 5 15 7 26 4 11 -3 18 -9
15 -13 -3 -4 2 -11 11 -14 9 -4 13 -2 8 5 -4 7 0 9 14 5 25 -8 35 13 17 38
-11 14 -11 24 -2 44 6 15 16 31 22 35 5 5 1 6 -11 2 -14 -3 -26 1 -35 12 -13
16 -12 17 2 5 14 -10 20 -10 33 3 9 9 16 12 16 7 0 -6 7 -12 14 -15 11 -4 13
-1 10 11 -5 13 -4 14 4 3 6 -8 15 -10 23 -6 8 5 11 5 7 0 -4 -4 -1 -17 7 -28
11 -16 12 -24 2 -36 -8 -9 -2 -8 17 4 l29 19 -12 -23 c-12 -21 -11 -22 9 -11
13 7 20 8 16 2 -3 -5 1 -12 9 -15 10 -4 12 -1 9 11 -3 9 2 4 11 -11 12 -21 22
-27 36 -24 10 3 22 1 25 -4 3 -5 10 -9 15 -9 6 0 7 6 3 13 -5 8 -2 8 9 -2 9
-7 17 -20 17 -28 0 -8 5 -11 10 -8 6 3 10 0 10 -7 0 -9 3 -9 10 2 6 10 10 11
10 3 0 -7 5 -13 11 -13 5 0 7 6 3 13 -5 7 -1 7 10 -2 9 -8 27 -15 39 -17 12
-1 33 -4 46 -8 14 -3 31 0 39 7 13 10 14 8 9 -13 -4 -14 -4 -19 -1 -12 5 10 9
10 22 0 9 -7 13 -8 10 -3 -4 6 -3 17 3 25 5 8 9 10 9 4 0 -6 7 -11 15 -11 11
0 12 4 3 14 -6 7 -8 16 -4 20 3 3 6 1 6 -6 0 -14 31 -11 43 4 5 6 6 3 3 -8 -4
-14 -2 -16 12 -8 11 6 24 5 37 -2 18 -9 19 -9 6 6 -12 15 -11 17 8 17 12 0 20
4 16 9 -3 5 0 13 6 17 8 5 9 3 4 -6 -6 -10 -1 -11 21 -6 23 6 27 5 17 -5 -7
-7 -13 -18 -13 -23 0 -6 5 -3 11 7 6 9 14 15 19 12 4 -3 6 5 3 17 -5 22 -5 22
9 5 13 -18 15 -17 33 5 l20 23 -25 -20 -25 -20 19 22 c15 18 22 20 33 12 7 -7
16 -9 20 -5 3 3 1 6 -5 6 -20 0 -13 28 10 44 15 11 26 12 40 5 12 -7 18 -6 18
1 0 6 4 8 10 5 6 -4 7 1 3 12 -6 16 -5 16 10 4 15 -12 17 -12 12 0 -3 8 2 23
11 34 8 11 13 15 10 8 -4 -6 -2 -15 4 -18 6 -4 9 -1 8 6 -2 7 3 13 10 14 6 0
12 5 11 10 0 6 -8 9 -17 7 -15 -2 -15 -1 1 8 9 6 21 8 27 5 5 -3 7 3 5 13 -2
15 2 18 19 17 19 -2 22 1 18 20 -2 12 1 26 7 29 6 4 11 12 11 18 0 6 -7 5 -17
-3 -16 -13 -17 -12 -4 4 11 14 17 15 28 5 11 -9 13 -8 11 3 -2 9 4 13 17 11
15 -2 17 -1 6 7 -8 5 -21 7 -30 4 -13 -4 -13 -3 -2 5 8 6 11 17 8 25 -4 11 -1
14 8 10 8 -3 12 -9 9 -14 -3 -5 2 -6 11 -3 14 6 14 8 -2 19 -15 11 -15 13 5
24 19 10 22 9 22 -6 1 -17 1 -17 11 0 10 17 12 17 30 2 17 -16 17 -20 4 -51
-8 -19 -10 -34 -4 -34 5 0 9 5 9 12 0 6 3 9 6 5 3 -3 -1 -20 -10 -37 -14 -30
-14 -31 1 -25 10 3 14 3 10 -1 -4 -4 -1 -14 6 -22 9 -13 9 -14 0 -8 -9 5 -13
1 -13 -11 0 -11 -5 -24 -12 -31 -16 -16 4 -16 21 1 11 10 12 9 5 -3 -12 -22
-14 -39 -3 -46 5 -3 7 -10 3 -15 -9 -15 -23 -1 -19 20 2 10 -3 18 -11 18 -8 0
-10 -4 -5 -11 5 -6 7 -28 6 -48 -2 -21 1 -38 5 -38 5 0 7 9 5 21 -4 17 -2 19
11 9 10 -9 11 -16 4 -25 -8 -9 -7 -15 2 -19 7 -3 2 -3 -12 0 -17 4 -21 2 -12
-4 8 -5 13 -12 13 -16 -3 -23 0 -26 18 -16 11 5 26 10 33 10 7 -1 2 -7 -11
-14 -20 -11 -21 -14 -7 -19 10 -4 15 -3 11 3 -9 14 8 12 24 -2 11 -11 12 -10
5 2 -11 20 -13 50 -2 44 4 -3 8 -13 8 -22 0 -15 2 -15 10 -2 8 13 10 13 10 -2
0 -9 4 -20 10 -23 6 -4 7 1 3 12 -6 16 -5 16 10 4 10 -8 17 -9 17 -3 0 6 -8
16 -17 22 -16 10 -15 10 4 5 12 -3 24 -1 28 5 5 8 11 8 21 -1 7 -6 11 -15 8
-20 -3 -5 2 -6 10 -3 9 3 13 11 9 18 -4 6 1 5 10 -3 9 -7 17 -10 17 -5 0 5 5
2 10 -6 8 -13 10 -13 10 -1 0 11 4 10 16 -5 13 -16 15 -16 10 -2 -3 10 0 20 6
24 7 4 8 3 4 -4 -4 -7 -3 -12 3 -12 5 0 12 4 16 10 7 12 50 -3 50 -18 0 -6 3
-13 7 -17 3 -4 5 5 4 19 -2 15 1 29 7 33 6 3 8 2 4 -3 -3 -5 1 -20 10 -34 13
-24 14 -24 10 -3 -3 13 0 26 5 30 7 3 8 1 4 -5 -4 -7 -2 -12 4 -12 6 0 8 -4 5
-10 -3 -6 1 -7 9 -4 9 3 16 10 16 16 0 5 -4 6 -10 3 -5 -3 -7 0 -4 9 3 8 11
13 18 10 7 -3 13 2 13 10 0 8 -5 12 -11 9 -6 -4 -5 1 3 10 10 13 10 17 1 17
-9 0 -9 4 -2 13 7 8 7 18 2 27 -5 8 -5 21 1 31 6 12 5 19 -4 22 -9 4 -8 6 2 6
11 1 11 4 0 18 -8 9 -9 14 -3 10 6 -3 11 0 11 8 0 8 -4 12 -9 9 -4 -3 -8 0 -8
5 0 6 5 11 11 11 8 0 7 6 -2 17 -10 11 -10 14 -1 9 6 -4 12 -2 12 3 0 6 -5 11
-11 11 -8 0 -8 4 0 13 7 9 7 17 1 23 -7 7 -5 17 6 30 8 10 12 13 8 5 -5 -10
-1 -11 17 -6 32 10 30 10 59 -2 14 -6 24 -13 23 -17 -6 -15 -2 -27 7 -21 9 6
14 -8 11 -28 -1 -5 3 -6 9 -2 14 9 13 -8 -2 -23 -8 -8 -9 -12 -1 -12 6 0 14 6
16 13 7 17 27 -11 20 -29 -6 -16 14 -28 23 -13 4 7 3 9 -4 5 -6 -4 -10 1 -9
13 0 11 6 17 14 14 7 -3 12 -8 11 -11 -3 -25 3 -34 16 -23 11 9 12 7 9 -13 -4
-18 1 -27 17 -36 15 -8 20 -8 16 -1 -5 7 -1 9 8 5 9 -3 16 -12 16 -20 0 -9 -6
-11 -17 -7 -15 6 -16 5 -3 -9 13 -13 16 -14 26 -1 9 13 13 13 28 -2 14 -14 14
-20 4 -33 -11 -13 -11 -14 0 -8 8 5 29 -3 55 -20 28 -18 55 -27 79 -27 29 0
36 -3 33 -16 -2 -12 4 -17 21 -19 13 -1 24 3 24 8 0 5 -7 7 -15 4 -8 -4 -15
-1 -15 6 0 6 5 8 10 5 6 -3 10 -1 10 4 0 6 9 2 20 -9 11 -11 29 -20 40 -20 11
0 20 -6 20 -12 0 -10 3 -9 9 1 7 11 9 11 13 0 5 -12 9 -12 28 -1 20 12 22 12
17 -2 -4 -11 -2 -13 10 -9 10 4 14 2 10 -4 -3 -5 0 -10 7 -10 8 0 12 6 9 13
-2 6 1 15 7 19 6 3 10 3 9 -2 -3 -18 1 -36 7 -30 4 3 16 2 27 -4 11 -7 17 -7
13 -1 -3 5 1 15 9 22 13 11 14 10 9 -6 -6 -16 -5 -17 7 -6 7 6 18 12 23 12 6
-1 0 -10 -13 -20 -13 -11 -18 -20 -13 -20 6 0 14 5 17 11 4 6 13 8 21 5 7 -3
16 0 20 6 5 7 2 8 -7 3 -8 -5 -11 -5 -7 0 4 4 2 15 -4 24 -10 12 -8 12 8 -1
16 -14 23 -15 34 -5 12 10 12 9 1 -5 -16 -22 1 -24 19 -3 7 8 17 15 23 15 6 0
3 -6 -7 -13 -17 -12 -17 -14 1 -28 16 -13 17 -13 4 4 -12 15 -11 17 3 17 9 0
19 7 22 15 4 8 11 12 16 9 7 -4 6 -9 -1 -14 -6 -3 4 -6 23 -6 19 1 32 4 30 8
-2 4 0 9 6 13 5 3 10 1 10 -4 0 -6 5 -11 11 -11 5 0 7 6 3 13 -6 9 -5 9 7 0
12 -10 18 -9 32 7 19 22 62 28 52 8 -4 -7 0 -5 8 4 8 10 17 15 20 11 4 -3 7 2
7 12 0 14 3 15 14 6 11 -9 19 -7 39 11 13 13 22 30 19 38 -2 9 2 7 12 -5 17
-20 17 -20 10 5 -6 23 -6 23 11 7 14 -15 15 -20 3 -35 -12 -15 -11 -16 4 -3
11 8 16 22 14 37 -3 16 -1 21 9 18 8 -3 11 -13 8 -22 -3 -10 1 -8 11 6 10 12
22 19 28 16 7 -4 8 -2 4 5 -6 9 -11 9 -22 0 -9 -7 -14 -8 -14 -1 0 14 36 25
52 17 7 -4 4 1 -7 11 -20 16 -20 16 3 11 17 -4 21 -2 13 7 -7 8 -6 17 1 26 8
13 9 12 5 -2 -4 -10 1 -18 14 -21 16 -4 17 -2 8 15 -10 18 -9 20 5 15 9 -4 16
-2 16 3 0 6 -6 10 -12 10 -7 0 -5 5 5 11 9 6 15 15 11 21 -4 6 1 6 14 -1 16
-9 24 -8 36 5 9 8 16 20 16 25 0 6 5 7 11 3 7 -4 6 2 -2 17 -12 23 -11 23 6 9
17 -14 18 -14 6 8 -14 26 -9 28 14 6 14 -15 15 -14 11 8 -3 16 1 25 10 25 7 0
11 -5 8 -11 -3 -6 2 -2 10 8 12 15 16 16 16 5 0 -12 2 -12 10 1 7 11 10 11 10
2 0 -7 5 -10 10 -7 6 3 10 -1 10 -9 0 -9 7 -16 15 -16 8 0 15 -4 15 -10 0 -5
-3 -9 -8 -7 -4 1 -8 -1 -10 -5 -1 -5 0 -7 1 -5 2 1 11 -4 21 -12 15 -12 16
-12 11 5 -5 13 -2 12 7 -4 8 -12 18 -19 23 -15 5 4 1 -5 -10 -22 -14 -22 -15
-27 -3 -17 13 10 19 10 31 -2 8 -8 18 -12 22 -8 5 4 5 1 1 -6 -4 -7 -2 -20 6
-29 7 -9 12 -18 11 -20 -2 -1 -1 -3 2 -3 3 0 8 0 12 0 3 0 -1 8 -10 18 -14 15
-14 19 -3 19 8 0 14 -5 13 -11 -1 -6 4 -10 12 -8 11 2 11 -2 -2 -22 -13 -20
-14 -24 -2 -22 8 1 18 6 22 11 4 4 2 5 -6 0 -10 -5 -12 -4 -7 4 12 19 24 4 20
-26 -2 -16 -1 -20 2 -11 5 16 7 16 26 -1 11 -11 17 -24 14 -30 -4 -6 2 -8 14
-6 18 3 25 -6 21 -28 -1 -5 4 -7 11 -4 7 2 12 10 11 16 -4 15 3 14 22 -5 13
-13 13 -19 3 -33 -9 -11 -6 -10 10 3 13 12 22 14 22 7 0 -7 5 -9 13 -5 8 5 8
2 -2 -9 -13 -16 -2 -25 13 -10 10 10 46 11 40 1 -3 -4 -1 -8 5 -8 5 0 12 -8
14 -17 4 -17 5 -17 6 0 0 10 6 15 11 12 6 -4 8 -11 5 -16 -4 -5 -1 -9 4 -9 6
0 11 8 11 18 0 14 2 15 10 2 9 -13 11 -13 20 0 6 9 10 10 10 3 0 -6 9 -10 20
-8 12 2 18 0 15 -6 -4 -5 -12 -6 -18 -2 -7 4 -5 -2 3 -13 22 -29 24 -30 17
-11 -5 14 4 23 16 15 1 -1 12 4 24 11 19 9 22 9 17 -3 -3 -8 0 -17 6 -21 6 -3
10 -3 9 2 -4 23 3 25 15 4 11 -20 14 -21 19 -7 4 10 3 15 -3 11 -6 -3 -10 -2
-10 3 0 6 7 13 16 16 8 3 12 2 9 -3 -3 -5 -1 -12 5 -16 6 -4 8 -11 5 -16 -10
-15 2 -10 16 8 10 11 10 14 2 9 -7 -4 -13 -2 -13 3 0 6 11 11 24 11 13 0 32 3
42 7 10 4 15 2 11 -3 -3 -6 11 -10 32 -9 30 0 37 3 33 15 -5 13 -3 13 10 2 12
-9 18 -10 23 -2 5 8 10 8 20 0 9 -8 14 -7 18 4 4 10 1 13 -7 10 -8 -3 -17 -1
-20 4 -3 6 10 9 33 8 33 -1 38 1 28 14 -6 8 -7 12 -2 7 4 -4 19 0 32 8 13 9
29 13 35 9 7 -5 9 -2 5 9 -4 11 -2 14 8 10 8 -3 12 -10 9 -17 -3 -6 2 -2 10 8
9 11 16 15 16 9 0 -6 6 -11 13 -10 38 1 42 -3 40 -45 0 -24 4 -46 10 -50 7 -5
2 -8 -12 -8 -24 0 -24 0 -5 -16 10 -8 14 -13 8 -10 -14 7 -27 -21 -14 -29 6
-4 5 -15 -2 -28 -7 -12 -13 -26 -13 -32 -1 -5 -7 -9 -13 -7 -10 2 -10 -3 -2
-19 11 -19 10 -20 -11 -14 -19 6 -20 5 -8 -8 8 -8 21 -12 29 -10 13 4 13 3 1
-5 -8 -6 -20 -8 -27 -5 -7 2 -21 0 -31 -7 -17 -10 -17 -11 2 -6 32 9 44 -6 21
-28 -14 -15 -18 -15 -13 -4 4 11 1 15 -11 13 -9 -2 -18 -4 -19 -5 -2 -2 -7 -3
-13 -4 -12 -1 -14 -15 -4 -24 4 -4 4 -1 -1 7 -6 10 -4 12 5 6 7 -4 16 -2 21 6
6 10 9 10 9 2 0 -14 -28 -30 -50 -28 -8 0 -19 -5 -25 -12 -5 -6 -17 -13 -25
-15 -8 -2 -21 -10 -27 -18 -11 -13 -12 -12 -7 5 5 20 5 20 -10 1 -8 -10 -13
-24 -10 -30 3 -6 -3 -1 -14 11 -17 19 -21 20 -26 7 -4 -10 -2 -13 6 -8 7 4 8
3 4 -4 -11 -18 -35 -3 -31 19 2 11 0 17 -6 13 -6 -3 -8 -9 -5 -12 3 -3 0 -12
-7 -20 -8 -11 -8 -14 0 -9 6 4 14 3 17 -2 9 -15 -18 -7 -50 14 -22 14 -26 14
-16 3 10 -13 10 -18 1 -24 -7 -4 -9 -3 -6 3 4 6 -5 13 -23 15 -16 2 -27 1 -24
-4 3 -4 0 -8 -5 -8 -6 0 -11 5 -11 10 0 6 -4 10 -10 10 -5 0 -6 -8 -3 -17 6
-15 5 -16 -9 -3 -9 8 -14 18 -11 22 2 4 -3 5 -12 2 -11 -5 -14 -2 -9 12 5 18
5 18 -6 0 -10 -15 -9 -20 1 -27 11 -7 10 -9 -5 -9 -15 0 -17 5 -12 28 l6 27
-15 -25 c-10 -18 -14 -20 -15 -9 0 9 -7 20 -16 23 -15 6 -15 4 -3 -11 11 -14
9 -14 -9 2 -19 16 -26 17 -43 7 -20 -13 -20 -12 -2 15 17 28 17 28 -3 11 -25
-21 -41 -24 -25 -4 9 11 9 16 0 22 -7 4 -9 3 -6 -3 4 -7 -3 -10 -17 -9 -13 0
-23 2 -21 4 2 2 -11 18 -29 35 -18 18 -31 41 -31 52 2 14 -4 21 -16 22 -21 2
-25 -12 -7 -23 7 -5 8 -3 3 6 -5 9 -4 11 4 6 20 -13 1 -27 -21 -15 -15 8 -19
8 -14 0 9 -14 -7 -14 -21 0 -8 8 -13 7 -18 -2 -5 -7 -4 -10 2 -6 6 4 16 0 22
-7 9 -11 9 -16 0 -22 -8 -4 -9 -3 -5 5 5 8 -2 11 -23 9 -24 -2 -28 -5 -19 -16
9 -10 8 -12 -3 -10 -9 2 -13 -4 -11 -17 2 -15 1 -17 -7 -6 -5 8 -6 21 -3 30 5
13 4 14 -10 1 -8 -8 -14 -20 -11 -26 2 -7 -7 -9 -25 -6 -17 2 -33 -1 -37 -9
-5 -8 -4 -10 3 -5 7 4 12 5 12 2 0 -3 -10 -10 -21 -17 -12 -6 -19 -7 -15 -1 3
5 0 12 -7 15 -10 4 -13 -2 -9 -21 4 -26 4 -27 -12 -7 -9 11 -16 16 -15 10 3
-22 -1 -36 -10 -31 -4 3 -13 -6 -19 -20 -11 -22 -14 -23 -34 -13 -20 11 -21
10 -11 -3 7 -8 10 -17 7 -21 -3 -3 5 -4 19 -3 20 2 24 -1 19 -13 -3 -9 -10
-19 -16 -23 -8 -5 -7 -8 1 -8 6 0 15 4 18 10 3 6 12 10 18 10 8 0 8 -3 2 -8
-5 -4 -17 -16 -25 -27 -14 -20 -14 -20 6 -2 21 17 21 17 17 -5 -3 -16 6 -33
30 -58 19 -19 32 -39 29 -45 -3 -5 2 -4 12 4 15 13 19 13 26 1 5 -8 6 -18 4
-22 -5 -8 12 -12 31 -8 38 8 45 8 40 1 -5 -9 45 -47 58 -43 4 1 7 -3 7 -8 0
-16 -10 -12 -50 20 -24 19 -41 26 -45 20 -4 -6 -1 -9 7 -8 7 2 12 -4 10 -12
-2 -8 0 -12 3 -8 10 10 47 -11 40 -22 -6 -9 36 -7 53 4 6 3 14 1 18 -5 4 -8 3
-9 -4 -5 -7 4 -12 2 -12 -3 0 -6 9 -11 21 -11 16 0 20 -4 15 -17 -6 -17 -5
-17 8 0 12 16 14 16 20 2 4 -12 10 -14 25 -5 29 15 38 12 15 -6 -10 -8 -13
-12 -5 -8 17 9 92 13 87 5 -2 -3 2 -12 10 -19 10 -9 14 -9 14 -1 0 8 5 7 17
-2 15 -12 16 -12 8 1 -7 13 -6 13 7 2 13 -10 18 -10 24 -1 5 9 11 7 21 -6 11
-16 13 -16 13 -3 0 10 7 15 18 13 9 -2 20 -4 24 -4 4 -1 4 -9 1 -18 -6 -15 -5
-16 9 -3 9 8 13 20 10 25 -3 6 2 4 12 -4 9 -8 14 -21 11 -30 -3 -9 3 -5 14 8
11 14 25 22 34 18 8 -3 20 0 27 6 10 9 11 9 6 0 -5 -8 -1 -13 9 -13 10 0 13 5
9 13 -5 8 -2 7 10 -2 13 -11 20 -11 28 -3 9 9 16 8 30 -5 16 -14 18 -14 13 -2
-6 17 19 20 43 5 12 -7 13 -6 16 14 0 6 5 10 10 9 5 0 13 5 17 13 7 10 9 9 9
-3 0 -9 8 -23 17 -30 9 -8 14 -9 10 -2 -4 7 4 16 22 24 16 7 27 17 25 21 -3 4
2 5 10 2 10 -4 16 -1 16 7 0 7 3 9 7 6 3 -4 13 -1 21 6 12 9 16 9 19 -1 3 -6
9 -9 14 -6 6 3 5 12 -3 22 -9 12 -5 11 12 -3 14 -11 22 -16 18 -11 -12 14 11
36 30 29 9 -3 14 -2 10 2 -5 5 1 15 12 22 11 8 18 19 14 24 -3 5 -2 9 3 8 4
-1 26 -1 47 0 33 1 37 3 25 14 -8 6 -12 11 -10 10 2 -2 11 3 19 10 11 8 14 8
9 0 -4 -6 -2 -15 4 -19 8 -4 9 -3 5 4 -4 7 -2 12 4 12 6 0 8 4 5 10 -3 5 -2
17 3 26 8 15 10 15 15 0 5 -11 3 -15 -5 -10 -7 5 -8 3 -4 -5 9 -13 21 -6 21
12 1 7 7 11 14 9 7 -1 10 2 6 7 -3 6 4 20 15 31 11 11 18 25 15 30 -4 6 -2 10
4 10 5 0 8 9 6 20 -2 11 1 19 7 17 6 -1 13 4 16 12 3 9 0 11 -8 6 -9 -5 -11
-4 -6 3 5 9 13 9 29 0 19 -9 20 -9 11 3 -6 8 -10 21 -8 29 2 8 5 22 6 30 4 18
17 25 26 14 4 -4 1 -4 -7 1 -10 6 -12 4 -7 -4 4 -6 2 -18 -4 -26 -8 -10 -9
-15 -2 -15 16 0 33 56 23 75 -10 18 -10 35 0 29 5 -3 7 -9 5 -13 -3 -4 2 -8
10 -8 10 0 11 4 4 11 -5 5 -10 18 -10 27 0 10 -5 19 -12 21 -7 3 -5 7 6 11 10
4 15 3 11 -3 -3 -6 -2 -10 3 -10 6 0 13 7 16 16 3 8 2 12 -4 9 -6 -3 -10 -1
-10 5 0 6 -5 8 -11 4 -8 -4 -8 0 0 15 7 11 17 21 24 21 7 0 3 6 -7 12 -18 10
-18 11 5 30 13 11 17 16 9 12 -12 -6 -13 -5 -3 8 7 8 10 18 6 22 -12 11 -12
37 -1 30 7 -5 8 -2 2 7 -12 20 -14 40 -3 33 10 -6 12 9 2 20 -10 10 -11 46 -1
40 4 -3 8 -1 8 5 0 5 -6 12 -12 14 -10 4 -10 6 0 6 8 1 10 6 6 13 -11 17 -11
58 -1 58 4 0 5 6 0 13 -10 17 -12 57 -1 51 4 -3 8 -1 8 5 0 5 -6 12 -12 14
-10 4 -9 6 1 6 11 1 11 4 1 16 -9 11 -9 15 -1 15 7 0 9 5 4 13 -10 16 -12 58
-2 51 4 -2 7 5 6 16 -1 11 -4 20 -7 20 -4 0 -7 7 -7 15 0 8 4 12 9 9 10 -6 11
10 1 20 -9 9 -11 46 -2 40 4 -2 7 5 6 16 -1 11 -5 20 -10 20 -5 0 -3 8 4 17
12 15 12 16 -1 8 -13 -7 -13 -6 -2 7 10 13 10 17 0 21 -10 4 -10 6 1 6 11 1
11 4 0 18 -10 11 -10 14 -1 9 6 -4 12 -2 12 3 0 6 -4 11 -8 11 -5 0 -9 7 -9
15 0 8 4 12 9 9 4 -3 8 -1 8 5 0 5 -6 12 -12 14 -10 4 -9 6 1 6 11 1 11 4 1
16 -9 11 -9 15 -1 15 7 0 9 5 4 13 -11 17 -13 38 -3 32 5 -3 7 3 5 12 -2 10
-4 18 -5 18 -1 0 -3 8 -5 18 -2 9 1 15 5 12 5 -3 8 4 7 15 -1 11 -4 20 -7 20
-4 0 -7 7 -7 15 0 8 4 12 9 9 10 -6 11 10 1 20 -10 10 -11 46 -1 40 4 -3 8 0
8 5 0 6 -4 11 -8 11 -5 0 -9 7 -9 15 0 8 4 12 9 9 4 -3 8 -1 8 5 0 5 -6 12
-12 14 -10 4 -9 6 1 6 11 1 11 4 1 16 -10 13 -9 15 9 15 15 0 20 4 15 13 -5 8
-2 8 9 -2 11 -9 17 -10 17 -2 0 6 8 3 18 -6 10 -10 28 -25 40 -33 20 -13 33
-38 14 -26 -4 2 -8 -4 -8 -14 0 -14 4 -16 12 -9 8 7 15 6 20 -2 4 -8 3 -9 -4
-5 -7 4 -12 2 -12 -3 0 -6 7 -11 16 -11 8 0 12 -4 9 -10 -3 -5 -1 -10 5 -10 6
0 8 -4 5 -10 -4 -6 1 -7 11 -3 13 5 15 3 9 -7 -6 -10 -4 -12 9 -7 11 4 15 3
11 -4 -4 -6 -13 -8 -19 -6 -7 3 -18 -5 -26 -16 -12 -21 -12 -21 5 -7 14 11 19
12 22 2 3 -6 9 -10 13 -7 15 9 38 -36 34 -65 -4 -19 0 -29 12 -34 13 -5 14 -4
6 7 -9 10 -8 14 2 14 14 0 16 -21 3 -33 -3 -3 1 -17 10 -30 8 -13 12 -24 7
-24 -4 0 1 -6 11 -14 11 -8 23 -12 27 -10 4 2 10 -1 14 -7 4 -8 3 -9 -4 -5 -7
4 -12 2 -12 -5 0 -6 8 -9 20 -6 11 3 18 1 15 -3 -3 -5 -1 -11 5 -15 5 -3 10
-12 10 -18 0 -9 -2 -9 -8 0 -5 8 -13 9 -22 3 -8 -6 -10 -10 -5 -10 6 0 23 -11
39 -25 16 -14 34 -25 40 -25 6 0 5 -4 -2 -9 -8 -4 -14 -12 -15 -17 -1 -5 -5
-8 -9 -7 -5 2 -8 -2 -8 -7 0 -6 8 -10 18 -10 10 0 19 -6 19 -12 1 -26 9 -43
28 -61 11 -10 15 -16 9 -13 -6 3 -11 -1 -11 -8 0 -8 8 -11 19 -8 17 4 23 -6
19 -37 -2 -8 2 -10 11 -5 9 5 8 2 -2 -11 -9 -11 -10 -16 -2 -11 11 6 17 -5 13
-26 0 -5 4 -8 9 -8 6 0 10 -7 10 -15 0 -8 6 -15 13 -15 7 0 8 -3 2 -8 -15 -11
-17 -32 -2 -32 8 0 7 -4 -3 -10 -13 -9 -13 -11 0 -20 8 -5 10 -10 4 -10 -6 0
-11 -7 -11 -15 0 -8 5 -15 10 -15 6 0 7 -3 4 -6 -4 -4 -13 -1 -22 6 -13 11
-14 10 -9 -5 5 -13 4 -16 -4 -11 -8 5 -10 2 -5 -9 5 -13 7 -14 14 -3 5 7 9 8
9 3 0 -6 -7 -21 -16 -33 -8 -12 -12 -28 -8 -35 4 -6 -6 -1 -22 13 -15 14 -23
18 -16 8 10 -13 10 -17 0 -21 -9 -4 -8 -6 3 -6 9 -1 19 -8 23 -16 3 -8 2 -14
-2 -14 -26 4 -34 -3 -29 -23 6 -23 6 -23 -10 -3 -15 20 -15 20 -10 -4 4 -18 1
-24 -14 -28 -16 -5 -18 -8 -7 -14 10 -7 10 -9 0 -9 -8 0 -11 -9 -8 -25 3 -14
1 -23 -4 -20 -4 3 -18 -3 -31 -13 -17 -15 -19 -21 -9 -27 9 -6 11 -4 5 5 -6 9
-4 11 5 5 10 -6 10 -10 -2 -19 -8 -6 -13 -17 -10 -25 3 -9 0 -11 -8 -6 -10 6
-12 4 -7 -8 7 -19 -8 -32 -19 -16 -5 8 -3 9 6 4 9 -6 11 -4 6 4 -5 7 -11 9
-14 6 -7 -6 -8 -11 -10 -52 -1 -13 -7 -23 -13 -23 -5 0 -7 6 -3 13 4 6 3 8 -1
4 -11 -10 -16 -39 -6 -32 4 2 8 -2 8 -10 0 -8 -4 -12 -9 -9 -8 5 -12 -10 -8
-36 2 -11 -3 -10 -21 5 -13 11 -18 13 -11 5 13 -16 16 -31 5 -29 -19 3 -22 -3
-13 -26 10 -27 2 -32 -19 -12 -11 10 -11 8 -2 -10 14 -28 14 -36 -1 -27 -8 5
-9 2 -5 -9 4 -11 1 -17 -9 -17 -12 0 -13 -4 -4 -20 8 -15 8 -20 -1 -18 -6 2
-14 -3 -17 -11 -3 -9 0 -11 8 -6 9 5 11 4 6 -4 -6 -9 -12 -9 -24 1 -10 7 -14
8 -10 4 4 -5 0 -15 -10 -23 -9 -8 -11 -11 -3 -7 10 5 11 1 6 -15 -5 -17 -3
-20 12 -15 15 5 15 4 3 -4 -9 -7 -18 -8 -26 -1 -8 7 -15 6 -20 -2 -4 -8 -3 -9
4 -5 7 4 12 1 12 -9 0 -10 -5 -13 -11 -9 -8 5 -10 -1 -5 -19 3 -14 2 -28 -3
-31 -5 -3 -8 2 -7 11 0 9 -6 18 -14 20 -13 4 -13 3 0 -6 12 -8 11 -13 -5 -32
-11 -12 -15 -19 -8 -16 6 4 14 1 16 -5 4 -10 6 -10 6 0 1 6 6 12 12 12 6 0 9
-6 6 -14 -7 -17 27 -14 48 4 10 8 15 8 21 -1 4 -7 3 -9 -3 -6 -5 3 -10 -1 -10
-9 0 -10 7 -8 25 8 14 13 22 17 18 11 -8 -14 -6 -15 36 -17 23 -2 25 0 15 13
-10 12 -9 13 11 2 15 -8 22 -8 22 -1 0 6 7 4 16 -5 11 -11 20 -13 28 -6 9 7
16 7 25 -2 10 -9 11 -8 5 8 -7 18 -6 19 11 5 11 -9 16 -10 11 -2 -4 6 -3 12 3
12 5 0 12 -6 15 -12 5 -10 7 -10 12 0 3 6 10 12 15 12 6 0 8 -4 5 -8 -7 -12
41 -9 51 2 4 5 2 6 -4 2 -18 -10 -16 -1 3 14 8 8 14 9 13 4 -5 -30 3 -37 17
-14 l15 25 -5 -25 c-3 -14 -3 -19 0 -12 3 6 11 9 16 6 7 -4 8 -2 4 4 -3 6 3
16 14 22 11 6 18 15 15 20 -3 4 5 6 17 2 21 -5 22 -4 8 13 -9 11 -10 16 -2 11
11 -6 17 5 13 27 0 4 6 7 15 7 14 0 14 3 4 15 -11 13 -10 14 3 10 8 -4 18 -1
23 6 5 8 3 10 -6 4 -10 -6 -12 -4 -7 7 3 9 0 21 -6 27 -9 9 -8 11 3 6 9 -3 24
2 35 10 19 15 19 16 -5 5 -24 -11 -24 -10 -5 5 11 8 25 13 32 11 7 -3 15 -1
18 5 4 5 3 9 -2 8 -20 -3 -34 2 -28 11 4 6 11 7 17 4 7 -4 8 -2 4 5 -4 6 -11
9 -15 7 -4 -3 -13 -1 -21 5 -11 6 -5 8 18 5 24 -3 30 0 22 9 -14 16 0 28 17
13 11 -8 12 -7 7 6 -5 13 -2 15 12 9 16 -6 17 -5 4 9 -11 11 -17 13 -23 4 -6
-7 -7 -4 -3 7 3 10 6 21 6 23 0 3 4 3 9 0 5 -3 12 6 15 19 4 14 11 23 17 19 6
-3 9 1 7 12 -2 12 5 20 22 25 14 4 18 7 8 8 -14 1 -15 5 -5 30 6 17 15 27 19
24 5 -2 4 -11 -2 -18 -8 -10 -8 -15 2 -21 7 -4 10 -4 6 1 -4 4 -3 14 3 22 6 7
8 13 4 13 -4 0 -1 8 6 17 10 11 10 14 2 9 -8 -4 -13 -2 -13 8 0 21 21 31 31
15 6 -10 8 -8 7 8 -2 14 -7 19 -18 15 -8 -3 -4 4 10 16 16 14 20 21 11 22 -11
0 -10 4 4 14 11 8 26 12 35 9 10 -3 11 -2 3 4 -13 9 -12 24 4 63 6 14 8 29 5
34 -3 5 0 6 7 2 6 -4 18 -2 27 4 11 10 12 16 2 27 -10 12 -9 14 4 11 9 -1 17
2 17 7 1 6 -3 10 -8 10 -5 0 -13 4 -18 9 -4 5 -3 7 3 3 16 -9 54 21 48 38 -4
8 -11 12 -18 8 -6 -3 -5 0 2 8 11 12 14 12 23 -1 8 -11 9 -8 4 14 -6 27 -5 28
11 15 16 -13 16 -12 4 11 -12 23 -12 24 4 11 9 -8 16 -10 15 -5 -3 20 2 35 10
29 5 -3 12 -2 15 3 3 5 -1 9 -9 10 -8 1 -22 3 -30 4 -8 1 -12 5 -9 9 2 5 12 5
21 2 11 -4 14 -3 9 5 -5 8 -2 10 8 6 11 -4 16 0 16 11 0 10 -5 13 -12 9 -7 -4
-8 -3 -4 5 4 6 17 9 29 6 12 -2 16 -2 9 1 -6 3 -9 11 -6 16 4 6 2 8 -4 4 -6
-3 -14 -1 -18 5 -5 8 -3 9 6 4 10 -6 12 -4 6 10 -6 18 -6 18 15 -1 l22 -19
-13 25 c-12 23 -12 24 4 11 14 -12 16 -12 10 4 -5 11 -3 16 2 12 6 -3 10 3 11
13 1 10 -6 21 -15 23 -10 3 -4 5 11 6 16 0 26 5 22 11 -3 5 -13 7 -23 4 -14
-5 -14 -4 -2 4 8 6 18 8 22 6 4 -3 8 0 8 6 0 6 4 9 9 5 5 -3 13 0 17 6 4 8 3
9 -4 5 -7 -4 -12 -3 -12 3 0 5 8 15 18 21 14 9 13 10 -8 5 -22 -5 -23 -4 -9 7
9 7 17 16 17 21 3 11 10 13 19 3 5 -5 2 -6 -6 -1 -10 5 -12 4 -7 -4 10 -16 26
-4 19 14 -4 11 0 14 13 9 11 -4 16 -4 12 0 -3 4 -13 9 -22 10 -9 1 -16 5 -16
9 0 4 0 12 0 18 0 6 7 3 16 -5 8 -9 18 -16 22 -16 3 0 1 5 -6 12 -18 18 -16
44 2 29 11 -9 13 -6 11 14 -2 14 1 23 6 19 5 -3 7 -10 4 -15 -3 -5 1 -6 10 -2
9 3 13 9 8 12 -15 11 -15 34 1 28 10 -4 13 -1 10 7 -3 8 5 22 18 31 15 11 17
15 6 12 -23 -8 -23 2 0 20 10 9 11 12 2 7 -8 -4 -3 4 13 19 27 26 37 44 17 32
-5 -3 -10 -2 -10 4 0 5 5 13 11 16 6 4 8 13 5 20 -8 21 18 37 33 22 11 -10 11
-8 2 10 -13 26 -15 44 -1 23 5 -8 12 -11 16 -7 4 3 2 12 -4 20 -8 9 -8 17 0
27 8 12 9 11 4 -5 -6 -19 -5 -19 7 -3 8 10 17 15 21 11 4 -4 4 0 0 10 -3 9
-11 14 -17 10 -6 -3 -7 -1 -3 5 4 7 13 12 20 12 21 0 40 27 25 36 -8 5 -9 3
-4 -6 6 -9 4 -11 -5 -5 -9 6 -11 4 -5 -5 5 -9 4 -11 -4 -6 -17 11 7 39 27 31
12 -4 13 -3 2 10 -10 12 -9 15 5 15 10 0 15 3 12 7 -4 3 1 12 11 20 9 8 11 12
5 8 -9 -4 -13 1 -13 14 0 12 4 21 10 21 5 0 6 8 3 18 -6 15 -5 16 12 2 17 -14
18 -13 13 8 -4 15 -2 22 8 22 8 0 14 5 14 11 0 5 -4 8 -8 5 -4 -2 -14 0 -22 5
-13 9 -13 10 0 6 8 -2 21 3 28 12 11 13 12 13 7 1 -4 -8 1 -6 9 4 12 15 13 23
4 33 -6 8 -7 13 -2 12 23 -4 26 2 8 16 -18 15 -18 15 0 8 15 -5 17 -3 11 8 -8
12 -6 12 9 0 9 -8 16 -10 15 -5 -4 20 2 35 11 29 6 -4 7 1 3 11 -5 13 -3 15 7
9 9 -5 11 -4 6 4 -6 9 -12 9 -24 -1 -14 -10 -14 -9 1 8 10 12 15 28 11 38 -8
20 0 21 20 0 24 -23 19 0 -5 27 -11 13 -18 18 -14 11 7 -14 -20 -12 -45 3 -13
8 -13 7 -1 -8 17 -22 2 -22 -29 0 -20 14 -23 14 -12 1 10 -12 9 -18 -3 -28
-13 -11 -14 -10 -9 6 6 15 4 17 -6 7 -7 -6 -19 -9 -27 -6 -8 3 -19 0 -24 -8
-6 -9 -9 -10 -9 -2 0 7 7 16 16 21 15 8 15 10 0 15 -11 4 -15 3 -10 -4 4 -8
-1 -9 -15 -4 -13 4 -21 2 -21 -5 0 -6 5 -8 10 -5 6 3 10 2 10 -3 0 -5 -9 -12
-19 -15 -13 -3 -18 0 -15 8 3 7 0 16 -6 20 -6 3 -10 3 -9 -2 4 -24 -3 -25 -16
-3 -8 14 -14 20 -15 14 0 -10 -39 -26 -56 -23 -4 0 -11 -5 -16 -13 -5 -8 -7
-2 -3 17 5 29 5 29 -6 5 -10 -23 -12 -24 -18 -6 -6 16 -8 17 -13 4 -4 -9 -1
-22 5 -29 10 -11 9 -11 -5 0 -10 7 -15 18 -11 25 4 6 -2 4 -12 -4 -17 -14 -18
-13 -12 2 4 13 2 15 -10 11 -12 -5 -14 -3 -8 8 7 12 5 12 -6 1 -12 -11 -12
-14 1 -22 13 -9 13 -10 0 -10 -9 0 -22 -6 -29 -12 -6 -7 -17 -13 -23 -13 -6 0
-13 -6 -16 -14 -3 -9 0 -11 8 -6 8 5 11 4 6 -3 -3 -6 -15 -9 -26 -7 -13 3 -17
-1 -13 -11 3 -8 10 -14 17 -15 6 0 0 -5 -14 -11 -14 -6 -29 -10 -33 -9 -5 1
-6 -3 -2 -9 5 -8 11 -8 20 0 10 8 15 8 21 -1 4 -8 3 -9 -5 -5 -6 4 -14 0 -17
-8 -3 -9 -10 -14 -14 -11 -5 3 -12 0 -16 -6 -4 -7 -3 -9 3 -6 6 4 14 0 17 -9
8 -21 8 -21 -10 -28 -14 -5 -15 -4 -4 9 7 8 8 15 2 15 -12 0 -24 -29 -16 -41
3 -5 -3 -9 -13 -10 -13 0 -14 -2 -4 -6 10 -4 8 -9 -10 -20 -13 -8 -17 -12 -8
-10 9 3 16 -1 16 -9 0 -7 -4 -11 -7 -9 -4 3 -7 -6 -7 -20 -1 -14 4 -22 10 -18
6 4 7 1 3 -6 -5 -7 -10 -10 -14 -7 -3 3 -11 -2 -19 -12 -8 -9 -12 -11 -8 -5 4
9 1 11 -10 7 -14 -6 -14 -8 2 -21 17 -13 16 -14 -7 -9 -14 3 -19 3 -12 0 6 -3
9 -11 6 -16 -4 -7 -2 -8 4 -4 8 5 10 2 6 -9 -4 -9 -9 -13 -12 -11 -7 8 -33
-15 -27 -24 3 -4 -2 -13 -10 -20 -15 -12 -9 -44 6 -34 15 9 10 -3 -8 -17 -15
-12 -16 -12 -8 1 6 12 6 13 -6 2 -12 -11 -12 -14 1 -22 13 -9 13 -10 0 -10 -9
0 -21 5 -27 11 -8 8 -13 7 -18 -2 -5 -7 -4 -10 2 -6 6 4 19 -3 29 -15 11 -12
13 -18 6 -14 -7 4 -15 0 -19 -11 -4 -10 -14 -24 -22 -31 -14 -10 -13 -11 4 -6
18 6 17 4 -3 -10 -12 -10 -20 -20 -18 -24 2 -4 -2 -13 -10 -20 -11 -10 -14
-10 -14 0 0 9 -3 9 -10 -2 -8 -12 -10 -12 -10 5 0 16 -2 17 -9 6 -5 -8 -17
-16 -25 -17 -9 -1 -14 2 -10 7 3 5 0 9 -6 9 -6 0 -8 4 -5 10 3 5 0 7 -8 4 -8
-3 -18 0 -23 7 -4 8 -3 10 4 5 7 -4 12 -2 12 3 0 6 -7 11 -16 11 -14 0 -13 3
3 18 10 9 14 14 9 10 -16 -13 -22 -9 -34 18 -7 15 -17 22 -24 18 -7 -4 -8 -3
-4 5 4 6 12 9 17 6 5 -3 6 1 3 9 -3 9 -10 14 -14 11 -5 -3 -12 0 -16 6 -4 8
-3 9 4 5 7 -4 12 -2 12 3 0 6 -7 11 -15 11 -8 0 -15 7 -15 16 0 8 -4 12 -10 9
-5 -3 -10 1 -10 10 0 9 4 14 9 11 5 -4 7 4 3 16 l-5 22 -9 -23 c-4 -12 -13
-19 -19 -16 -7 5 -7 11 -1 17 6 6 8 17 5 26 -4 9 -2 13 4 9 5 -3 10 0 10 7 0
7 -6 13 -13 13 -7 0 -11 -4 -8 -8 2 -4 0 -10 -5 -13 -6 -4 -8 7 -6 25 5 36 -8
69 -19 50 -4 -6 -2 -11 3 -11 13 0 15 -27 2 -34 -5 -3 -15 2 -22 11 -10 12
-10 14 -1 9 16 -9 16 6 0 23 -10 11 -10 13 0 7 6 -4 12 -2 12 3 0 6 -4 11 -10
11 -5 0 -10 7 -10 16 0 8 -4 13 -9 10 -5 -3 -11 3 -14 14 -3 11 -1 18 3 15 5
-3 7 2 6 11 -1 9 -11 21 -22 26 -18 9 -18 9 0 -6 17 -14 18 -16 3 -16 -15 0
-19 6 -16 26 0 4 -5 11 -13 16 -9 6 -6 7 10 3 13 -4 22 -2 22 4 0 6 -3 10 -7
10 -5 -1 -17 -1 -27 0 -18 1 -19 2 -3 14 15 11 12 18 -38 74 -32 35 -56 72
-57 87 -2 19 -5 22 -15 14 -15 -12 -17 -22 -3 -13 6 3 10 1 10 -5 0 -7 -7 -9
-16 -6 -9 3 -18 6 -20 6 -3 0 -2 5 1 11 4 6 -2 5 -13 -2 -12 -7 -19 -17 -16
-21 3 -4 -2 -5 -10 -2 -9 3 -13 10 -10 15 3 5 0 9 -6 9 -6 0 -8 6 -4 13 4 6
-5 1 -19 -12 -15 -14 -30 -21 -34 -18 -3 4 -12 2 -20 -5 -11 -9 -12 -7 -7 8 6
16 5 17 -7 7 -7 -7 -18 -13 -24 -13 -5 1 1 10 14 20 13 11 18 20 13 20 -6 0
-14 -5 -17 -11 -4 -6 -13 -8 -20 -5 -9 3 -12 -2 -10 -14 3 -13 -1 -17 -11 -13
-7 3 -11 9 -8 14 3 5 0 9 -6 9 -6 0 -8 6 -4 13 4 6 -5 1 -19 -12 -15 -14 -30
-21 -34 -18 -3 4 -12 2 -20 -5 -11 -9 -12 -7 -7 8 6 16 5 17 -7 7 -7 -7 -18
-13 -24 -13 -5 1 1 10 14 20 13 11 18 20 13 20 -6 0 -14 -5 -17 -11 -4 -6 -14
-8 -22 -5 -10 4 -13 2 -10 -8 3 -8 0 -17 -8 -20 -10 -3 -12 0 -8 12 6 15 5 15
-11 2 -16 -13 -20 -12 -30 2 -10 14 -15 14 -39 2 -27 -14 -33 -10 -28 19 1 5
-3 5 -9 2 -6 -4 -9 -13 -6 -21 3 -7 1 -16 -5 -19 -5 -4 -8 -2 -7 3 2 6 -1 10
-7 11 -5 1 -10 -3 -10 -8 0 -5 -4 -13 -9 -18 -5 -4 -6 -3 -2 4 8 14 -10 27
-19 13 -3 -5 -11 -10 -18 -10 -6 0 -2 6 8 14 11 8 24 12 29 9 5 -4 6 -1 2 5
-5 9 -13 9 -27 1 -23 -12 -54 -4 -44 11 10 16 -1 11 -16 -7 -10 -11 -10 -14
-1 -9 7 4 12 2 12 -4 0 -7 -7 -9 -16 -6 -9 3 -18 6 -20 6 -3 0 -2 5 1 11 4 6
-2 5 -13 -2 -12 -7 -19 -17 -16 -21 3 -4 -2 -5 -10 -2 -9 3 -13 10 -10 15 3 5
0 9 -6 9 -6 0 -8 6 -4 13 4 6 -4 2 -18 -10 -13 -13 -28 -23 -34 -23 -5 0 -4 4
2 8 8 5 7 11 -4 22 -14 13 -15 12 -9 -3 4 -10 0 -20 -11 -26 -19 -11 -24 -51
-7 -64 5 -5 0 -6 -12 -2 -18 5 -21 2 -16 -17 3 -17 2 -19 -5 -9 -6 9 -12 10
-16 2 -5 -7 -17 -4 -38 9 -26 15 -35 17 -47 7 -12 -10 -14 -9 -7 7 7 20 7 20
-15 0 -12 -10 -20 -14 -16 -8 8 14 -26 47 -38 37 -4 -5 -5 -2 -1 5 6 10 11 10
22 1 10 -8 14 -8 14 0 0 6 -5 11 -11 11 -5 0 -7 5 -3 11 4 8 0 8 -15 0 -17 -9
-20 -9 -15 3 4 11 0 13 -15 9 -11 -3 -18 -10 -14 -16 3 -6 1 -7 -6 -3 -6 4 -9
11 -6 16 8 13 -21 31 -40 23 -14 -5 -16 -3 -10 7 5 9 4 11 -4 6 -7 -5 -23 -9
-37 -11 -20 -2 -22 0 -13 12 7 7 9 16 5 20 -3 3 -6 1 -6 -6 0 -7 -6 -11 -14
-8 -8 3 -17 -1 -20 -9 -9 -23 -24 -8 -21 21 4 30 2 30 -16 8 -12 -15 -12 -16
1 -8 13 8 13 7 1 -8 -14 -18 -26 -23 -16 -8 3 5 1 12 -5 16 -6 4 -7 12 -3 18
4 7 0 6 -10 -2 -14 -11 -20 -11 -34 0 -14 12 -16 12 -8 -1 12 -19 14 -51 3
-44 -4 3 -8 12 -8 20 0 9 -6 14 -12 12 -7 -3 -13 -10 -13 -16 0 -5 -3 -13 -6
-17 -4 -3 -5 8 -4 25 2 29 1 30 -14 15 -10 -8 -21 -12 -26 -8 -4 5 -5 2 -1 -5
4 -7 13 -9 19 -5 7 4 6 0 -2 -10 -14 -17 -26 -24 -17 -9 2 4 -3 13 -13 19 -14
9 -18 8 -18 -3 0 -7 5 -10 10 -7 6 3 7 1 3 -5 -4 -6 -13 -9 -21 -6 -8 4 -13 9
-10 13 2 4 -2 8 -9 8 -8 0 -12 -6 -9 -14 3 -7 0 -13 -6 -13 -6 0 -11 5 -11 12
0 6 -3 8 -7 4 -5 -4 -8 -11 -8 -15 0 -4 -9 -16 -19 -27 -14 -13 -18 -14 -14
-4 3 8 -1 21 -9 29 -13 12 -14 11 -8 -7 5 -18 3 -21 -11 -15 -13 5 -15 3 -9
-8 8 -12 6 -12 -8 0 -16 12 -17 12 -10 -5 6 -16 5 -17 -9 -6 -13 10 -18 10
-24 1 -4 -8 -3 -9 4 -5 7 4 12 2 12 -3 0 -6 -6 -11 -14 -11 -8 0 -17 -6 -20
-12 -3 -7 -3 -2 0 12 6 23 6 23 -10 7 -10 -9 -14 -22 -11 -27 4 -7 -2 -9 -20
-4 -19 5 -26 3 -25 -7 5 -32 0 -41 -21 -36 -13 3 -19 1 -16 -6 2 -7 13 -10 23
-9 10 2 17 2 14 0 -3 -2 -16 -12 -29 -23 -14 -11 -21 -14 -17 -7 9 15 4 15
-29 0 -27 -12 -32 -23 -15 -33 6 -4 9 -1 8 6 -2 6 3 14 10 16 17 6 15 -12 -3
-27 -12 -10 -18 -10 -32 1 -15 13 -15 12 -5 -8 13 -24 7 -32 -21 -28 -15 3
-16 1 -6 -11 6 -8 9 -17 5 -21 -3 -3 -6 -1 -6 4 0 15 -35 9 -36 -5 -1 -7 -2
-17 -3 -23 0 -5 -5 -8 -9 -5 -5 3 -9 -1 -9 -9 0 -12 4 -12 19 2 11 9 16 24 13
32 -5 13 -4 13 6 4 9 -9 9 -16 1 -26 -9 -10 -8 -17 1 -26 9 -10 8 -11 -6 -5
-12 4 -16 2 -14 -7 2 -8 2 -11 0 -6 -7 12 -33 8 -33 -5 0 -6 -7 -3 -15 8 -10
13 -13 14 -10 3 4 -10 0 -16 -9 -16 -8 0 -13 4 -11 8 3 4 -2 10 -11 13 -8 3
-13 2 -10 -2 3 -5 -1 -9 -9 -9 -8 0 -13 3 -10 5 3 3 -1 12 -8 20 -10 13 -9 15
3 8 9 -4 8 -2 -2 7 -10 8 -14 17 -10 21 4 4 3 7 -3 6 -5 -1 -17 -2 -25 -1 -13
1 -13 2 0 11 13 8 12 10 -2 10 -21 0 -23 11 -5 30 10 12 9 12 -4 2 -9 -6 -19
-8 -24 -4 -4 4 -3 -3 4 -15 17 -33 13 -42 -5 -10 -8 15 -19 25 -25 22 -5 -4
-8 -1 -7 7 2 7 -2 12 -9 11 -7 -2 -10 4 -7 12 4 9 1 22 -6 30 -9 11 -9 15 -1
15 7 0 9 5 5 11 -4 8 -9 7 -15 -2 -4 -8 -4 -18 1 -23 6 -6 10 -14 10 -19 0 -5
-7 -2 -15 7 -8 8 -15 20 -15 26 0 6 -4 9 -9 5 -5 -3 -12 4 -16 15 -3 11 -11
21 -16 21 -34 5 -59 21 -52 33 4 6 -1 5 -10 -3 -19 -15 -24 -2 -6 16 8 8 7 13
-2 18 -7 5 -10 4 -6 -2 4 -6 0 -14 -9 -17 -8 -3 -12 -2 -9 4 3 6 1 11 -4 11
-6 1 -17 2 -23 3 -7 1 -19 -5 -27 -14 -7 -8 -6 -3 3 12 20 34 20 44 1 24 -19
-18 -42 -11 -50 15 -4 11 -11 17 -16 13 -5 -3 -6 -11 -3 -17 5 -9 3 -9 -6 0
-11 10 -11 15 1 30 12 16 12 17 -1 7 -20 -14 -62 -16 -54 -2 4 7 2 8 -5 4 -9
-6 -9 -11 1 -23 8 -10 14 -11 16 -4 4 12 22 5 22 -9 0 -15 -33 -4 -51 18 -12
15 -19 18 -22 10 -3 -7 -6 -4 -6 6 -1 20 -1 20 -17 0 -8 -10 -13 -13 -9 -6 3
6 1 12 -5 12 -6 0 -8 6 -4 13 4 7 3 9 -2 4 -5 -5 -9 -13 -9 -18 0 -5 -4 -9
-10 -8 -5 0 -9 6 -8 13 2 7 -7 12 -21 12 -14 0 -22 -4 -19 -9 3 -5 0 -8 -8 -5
-8 3 -14 10 -14 15 0 6 -4 15 -9 20 -5 4 -6 3 -3 -4 4 -6 -5 -15 -23 -22 -17
-5 -30 -7 -30 -3 0 4 -5 0 -10 -8 -7 -11 -10 -11 -10 -2 0 7 -4 10 -10 7 -14
-9 -12 8 3 25 10 12 9 12 -5 1 -10 -7 -24 -11 -32 -8 -7 3 -18 1 -24 -5 -13
-13 -35 -1 -26 14 5 7 2 8 -5 3 -10 -6 -9 -11 3 -23 12 -13 18 -13 30 -2 12 9
16 9 16 1 0 -7 5 -9 12 -5 7 4 8 3 4 -4 -4 -6 -14 -8 -23 -5 -11 5 -14 3 -8
-6 6 -10 3 -11 -12 -3 -23 13 -95 11 -105 -2 -8 -12 -40 -17 -32 -5 3 5 10 6
16 3 7 -4 8 -2 4 5 -6 9 -11 9 -23 -1 -9 -7 -18 -12 -20 -10 -9 6 -23 1 -23
-9 0 -8 5 -8 15 1 9 7 15 8 15 2 0 -15 -26 -22 -38 -10 -6 6 -8 18 -5 27 4 13
3 14 -5 2 -7 -10 -7 -21 0 -35 10 -20 10 -20 -8 -5 -19 17 -49 15 -38 -2 8
-13 -10 -11 -26 4 -8 6 -6 2 3 -10 14 -16 15 -23 6 -29 -7 -4 -10 -3 -6 3 4 6
0 14 -9 17 -24 9 -31 7 -14 -5 12 -9 11 -10 -7 -6 -13 3 -26 1 -29 -4 -3 -5
-10 -6 -16 -3 -7 4 -8 2 -4 -5 6 -9 11 -9 22 0 9 7 14 8 14 1 0 -6 -9 -14 -20
-17 -11 -4 -17 -11 -14 -17 4 -7 2 -8 -5 -4 -6 4 -9 11 -7 15 3 4 -1 8 -8 8
-8 0 -11 -8 -8 -21 4 -21 4 -21 -12 -1 -10 11 -15 14 -11 7 10 -20 -12 -40
-43 -36 -15 2 -19 1 -9 -2 20 -6 22 -20 5 -30 -7 -5 -8 -2 -3 7 6 11 5 11 -5
2 -7 -6 -18 -10 -24 -9 -6 2 -8 1 -3 -1 13 -8 7 -29 -12 -47 -14 -13 -21 -14
-27 -5 -5 8 -3 10 6 4 9 -5 11 -4 6 3 -10 16 -27 15 -25 0 3 -25 -1 -38 -12
-38 -5 0 -8 4 -4 9 3 5 1 13 -5 16 -6 4 -9 1 -8 -7 2 -7 -5 -12 -14 -12 -24 2
-23 -3 3 -17 15 -7 19 -8 15 0 -5 7 -1 9 9 5 14 -6 14 -8 -2 -19 -10 -7 -25
-12 -35 -10 -11 3 -15 -1 -11 -11 3 -7 10 -11 16 -7 6 3 7 1 3 -5 -5 -9 -13
-9 -26 -2 -13 7 -21 7 -26 -2 -4 -6 -3 -8 3 -5 6 4 14 0 17 -9 4 -12 1 -14
-13 -9 -11 3 -22 1 -26 -4 -4 -7 1 -8 11 -4 13 5 15 3 9 -7 -5 -8 -4 -11 1 -7
6 3 16 1 24 -5 12 -8 12 -9 -2 -4 -10 3 -18 1 -18 -5 0 -6 -4 -7 -10 -4 -5 3
-10 2 -10 -4 0 -6 -7 -7 -17 -4 -10 4 -14 2 -10 -4 9 -14 -28 -9 -47 6 -11 10
-13 18 -6 31 6 11 6 21 1 24 -9 6 -7 48 3 65 3 5 0 12 -6 14 -10 4 -9 6 1 6
11 1 11 4 0 18 -8 9 -9 14 -3 10 6 -3 11 0 11 8 0 8 -4 12 -9 9 -4 -3 -8 0 -8
5 0 6 5 11 11 11 8 0 7 6 -2 17 -10 11 -10 14 -1 9 6 -4 12 -2 12 3 0 6 -5 11
-11 11 -8 0 -9 4 0 13 6 8 8 17 4 21 -4 3 -8 17 -10 29 -2 17 -1 19 7 7 6 -9
10 -10 10 -3 0 6 -5 15 -10 18 -7 4 -7 12 0 25 7 13 6 20 -3 23 -9 4 -9 6 1 6
8 1 10 6 5 14 -11 18 -13 38 -2 31 5 -3 9 0 9 5 0 6 -5 11 -11 11 -8 0 -8 4
-1 13 7 8 7 18 2 27 -5 9 -5 19 2 27 8 10 7 13 -3 13 -8 0 -5 6 7 15 13 11 14
13 3 9 -13 -4 -16 1 -14 20 2 14 6 29 9 35 3 5 0 12 -6 14 -10 4 -9 6 1 6 11
1 11 4 0 18 -8 9 -9 14 -3 10 6 -3 11 0 11 8 0 8 -4 12 -9 9 -4 -3 -8 0 -8 5
0 6 5 11 11 11 8 0 7 6 -2 17 -10 11 -10 14 -1 9 6 -4 12 -2 12 3 0 6 -5 11
-11 11 -8 0 -9 4 0 13 6 8 8 17 4 21 -4 3 -8 17 -10 29 -2 17 -1 19 7 7 6 -9
10 -10 10 -3 0 6 -5 15 -10 18 -7 4 -7 12 0 25 7 13 6 20 -3 23 -9 4 -9 6 1 6
8 1 10 6 5 14 -11 18 -13 38 -2 31 5 -3 9 0 9 5 0 6 -5 11 -11 11 -8 0 -8 4
-1 13 7 8 7 18 2 27 -5 9 -5 19 2 27 8 10 7 13 -3 13 -8 0 -5 6 7 15 13 11 14
13 3 9 -13 -4 -16 1 -14 20 2 14 6 29 9 35 3 5 0 12 -6 14 -10 4 -9 6 1 6 11
1 11 4 0 18 -8 9 -9 14 -3 10 6 -3 11 0 11 8 0 8 -4 12 -9 9 -4 -3 -8 0 -8 5
0 6 5 11 11 11 8 0 7 6 -2 17 -10 11 -10 14 -1 9 6 -4 12 -2 12 3 0 6 -5 11
-11 11 -8 0 -8 5 1 15 10 12 10 15 -1 15 -9 0 -10 3 -4 8 6 4 11 15 11 25 2
14 -1 15 -12 6 -12 -10 -13 -9 -8 4 7 19 -14 51 -36 54 -9 2 -6 -4 8 -13 12
-9 22 -21 22 -26 0 -5 -7 -2 -16 6 -8 9 -20 14 -25 11 -5 -4 -9 -2 -9 2 0 5
-10 14 -22 22 -20 13 -22 12 -11 -1 7 -8 10 -18 6 -21 -3 -4 -12 1 -20 11 -14
16 -14 16 -9 -2 6 -16 4 -17 -9 -6 -12 10 -15 10 -15 -1 0 -11 -2 -11 -10 1
-8 12 -11 13 -19 1 -7 -11 -9 -11 -14 0 -5 12 -7 12 -15 0 -8 -11 -10 -11 -15
0 -4 12 -7 11 -16 -1 -10 -13 -11 -13 -12 0 -1 8 -1 19 0 24 1 5 -5 4 -13 -4
-13 -10 -19 -10 -33 1 -16 13 -17 12 -5 -3 9 -11 10 -18 2 -23 -5 -3 -10 -2
-10 2 0 5 -10 14 -22 22 -18 10 -20 11 -10 0 15 -17 16 -37 0 -21 -8 8 -16 8
-32 0 -19 -10 -20 -10 -7 6 12 14 12 16 -3 10 -9 -3 -16 -11 -16 -18 0 -6 -5
-4 -10 4 -9 13 -10 13 -10 0 0 -13 -1 -13 -10 0 -7 11 -10 11 -10 2 0 -7 -4
-11 -9 -7 -5 3 -13 0 -17 -6 -4 -7 -3 -10 2 -6 5 3 14 -6 21 -19 11 -24 2 -41
-17 -29 -15 9 -12 27 3 19 6 -4 8 -3 4 1 -4 5 -14 10 -22 11 -12 2 -13 -2 -3
-19 7 -12 11 -26 10 -31 -2 -5 4 -6 12 -3 16 7 12 -16 -8 -42 -9 -12 -7 -13 7
-8 10 4 16 3 12 -2 -3 -5 0 -13 5 -16 8 -5 6 -13 -5 -25 -19 -20 -31 -80 -17
-80 5 0 8 11 7 24 -4 29 9 53 19 37 4 -6 3 -11 -2 -11 -12 0 -11 -32 2 -49 8
-11 8 -13 -2 -7 -13 8 -12 -19 2 -42 7 -11 4 -12 -13 -3 -11 7 -21 16 -21 22
0 6 6 7 13 3 6 -4 8 -3 4 1 -4 5 -14 10 -22 11 -17 3 -12 -10 18 -43 11 -13
16 -23 11 -23 -5 0 -2 -5 6 -11 11 -8 9 -9 -10 -3 l-25 6 23 -24 c26 -29 27
-34 6 -42 -14 -5 -15 -4 -5 8 9 11 9 16 0 22 -7 4 -9 3 -5 -4 3 -6 2 -13 -3
-17 -6 -3 -8 -12 -4 -20 3 -10 -1 -15 -13 -16 -12 0 -14 -3 -6 -6 7 -3 19 0
26 7 11 8 16 8 22 -1 4 -8 3 -9 -4 -5 -8 5 -12 0 -12 -13 0 -29 3 -37 14 -33
5 2 3 -4 -4 -13 -12 -14 -11 -18 1 -26 8 -5 9 -9 4 -9 -6 0 -17 6 -25 13 -9 8
-8 3 2 -14 15 -23 15 -29 2 -54 -12 -24 -12 -26 2 -21 8 3 12 2 9 -3 -3 -5 0
-13 5 -16 8 -5 6 -13 -5 -25 -19 -20 -31 -80 -17 -80 5 0 8 11 7 24 -4 29 9
53 19 37 4 -6 3 -11 -2 -11 -12 0 -11 -32 2 -49 8 -11 8 -13 -2 -7 -13 8 -12
-19 2 -42 7 -11 4 -12 -13 -3 -11 7 -21 16 -21 22 0 6 6 7 13 3 6 -4 8 -3 4 1
-4 5 -14 10 -22 11 -17 3 -12 -10 18 -43 11 -13 16 -23 11 -23 -5 0 -2 -5 6
-11 11 -8 9 -9 -10 -3 l-25 6 23 -24 c26 -29 27 -34 6 -42 -14 -5 -15 -4 -5 8
9 11 9 16 0 22 -7 4 -9 3 -5 -4 3 -6 2 -13 -3 -17 -6 -3 -8 -12 -4 -20 3 -10
-1 -15 -13 -16 -12 0 -14 -3 -6 -6 7 -3 19 0 26 7 11 8 16 8 22 -1 4 -8 3 -9
-4 -5 -8 5 -12 0 -12 -13 0 -29 3 -37 14 -33 5 2 3 -4 -4 -13 -12 -14 -11 -18
1 -26 8 -5 9 -9 4 -9 -6 0 -17 6 -25 13 -9 8 -8 3 2 -14 15 -23 15 -29 2 -54
-12 -24 -12 -26 2 -21 8 3 12 2 9 -3 -3 -5 0 -13 5 -16 8 -5 5 -13 -6 -26 -17
-19 -28 -103 -12 -93 4 3 8 -2 8 -10 0 -9 6 -16 13 -16 8 0 9 -3 1 -8 -6 -4
-10 -15 -9 -24 2 -12 -3 -15 -17 -13 -17 4 -18 2 -6 -12 12 -15 11 -15 -9 -4
-18 9 -23 9 -23 -1 0 -10 -3 -9 -9 1 -8 13 -12 13 -28 1 -15 -12 -16 -12 -5 0
14 16 16 34 3 26 -5 -4 -7 4 -3 16 3 14 1 19 -6 14 -6 -3 -14 -1 -18 5 -4 7
-3 9 3 6 6 -4 11 4 11 18 0 23 -2 24 -13 8 -11 -15 -13 -15 -25 6 -8 15 -8 21
-1 17 6 -4 11 -2 11 3 0 6 -7 11 -16 11 -8 0 -12 5 -9 10 4 6 10 8 14 6 4 -3
8 1 8 9 0 11 -5 11 -19 4 -18 -10 -19 -9 -7 13 11 21 11 22 -4 9 -12 -9 -17
-10 -17 -2 0 7 -4 10 -8 7 -4 -2 -9 5 -9 16 -2 25 -6 29 -31 31 -12 1 -18 6
-15 15 4 9 -1 12 -13 10 -15 -2 -19 3 -17 27 0 17 -1 24 -4 18 -2 -7 -11 -13
-19 -13 -10 0 -12 5 -8 13 5 8 2 8 -9 -2 -13 -10 -17 -10 -17 -1 0 9 -3 10
-13 1 -10 -8 -14 -7 -14 4 0 8 4 12 9 9 4 -3 8 -1 8 5 0 5 -10 11 -22 13 -13
2 -23 9 -23 17 0 8 -6 16 -14 19 -8 3 -11 0 -8 -5 3 -5 0 -10 -9 -10 -9 0 -12
7 -9 17 3 10 0 17 -9 17 -9 0 -13 -4 -10 -8 2 -4 -1 -11 -7 -15 -8 -5 -9 -3
-4 6 6 10 4 12 -9 7 -18 -7 -50 15 -39 27 4 3 1 6 -5 6 -7 0 -12 -4 -12 -10 0
-5 -5 -10 -11 -10 -5 0 -7 5 -4 10 4 6 -5 10 -20 10 -17 0 -24 4 -19 12 4 7 3
8 -5 4 -9 -6 -9 -11 -1 -21 9 -10 7 -13 -7 -11 -10 2 -17 10 -15 18 2 16 -26
20 -44 7 -7 -6 -21 -1 -36 11 -23 18 -27 18 -39 4 -12 -14 -14 -14 -27 3 -11
14 -13 14 -9 2 8 -23 -41 -46 -49 -24 -5 12 -10 10 -26 -8 -11 -12 -17 -17
-14 -10 7 12 -11 12 -31 0 -8 -5 -13 -3 -13 4 0 6 -9 1 -21 -12 -11 -13 -18
-17 -14 -9 4 9 0 7 -9 -4 -8 -10 -19 -15 -24 -12 -6 4 -9 -5 -7 -21 2 -25 2
-26 -11 -9 -7 11 -11 23 -7 29 3 6 1 7 -5 4 -5 -4 -8 -17 -5 -30 5 -21 5 -21
-9 -3 -10 13 -17 15 -22 8 -4 -7 -4 -16 -1 -22 3 -5 -1 -10 -10 -10 -9 0 -13
5 -10 10 3 6 1 10 -5 10 -7 0 -10 -6 -7 -14 7 -17 -23 -45 -41 -39 -10 4 -10
8 0 21 7 10 -1 6 -16 -8 -16 -14 -26 -19 -22 -12 5 7 1 12 -10 12 -16 0 -16 1
2 15 13 10 14 13 3 10 -17 -6 -20 19 -5 43 4 7 2 12 -6 13 -7 0 -4 4 7 9 18 8
18 9 2 9 -14 1 -16 5 -8 19 7 13 6 23 -1 30 -9 9 -9 12 1 12 11 0 11 3 0 17
-10 11 -10 14 -1 9 6 -4 12 -2 12 3 0 6 -5 11 -12 11 -9 0 -9 3 0 12 16 16 15
31 0 22 -9 -5 -9 -2 1 9 10 13 10 17 1 17 -10 0 -10 3 0 15 10 12 10 15 -1 15
-12 0 -12 2 0 9 11 7 11 9 0 14 -12 5 -12 6 0 6 11 1 11 4 0 18 -10 11 -10 14
-1 9 6 -4 12 -2 12 3 0 6 -5 11 -12 11 -9 0 -9 3 0 12 16 16 15 31 0 22 -9 -5
-9 -2 1 9 10 13 10 17 1 17 -10 0 -10 3 0 15 10 12 10 15 -1 15 -12 0 -12 2
-1 9 8 4 14 12 14 16 0 4 -6 12 -14 16 -11 7 -11 9 1 9 11 0 11 3 0 17 -8 9
-9 14 -3 10 6 -3 11 0 11 8 0 8 -4 12 -9 9 -4 -3 -8 0 -8 5 0 6 5 11 11 11 8
0 7 6 -2 17 -10 11 -10 14 -1 9 6 -4 12 -2 12 3 0 6 -5 11 -11 11 -8 0 -9 4 0
13 6 8 8 17 4 21 -4 3 -8 17 -10 29 -2 17 -1 19 7 7 6 -9 10 -10 10 -3 0 6 -5
15 -10 18 -7 4 -7 13 0 26 8 14 7 19 -2 19 -10 0 -10 2 1 9 8 5 9 11 3 15 -11
7 -11 24 1 43 4 6 1 14 -5 16 -10 4 -9 6 1 6 11 1 11 4 0 18 -8 9 -9 14 -3 10
6 -3 11 0 11 8 0 8 -4 12 -9 9 -4 -3 -8 0 -8 5 0 6 5 11 11 11 8 0 7 6 -2 17
-10 11 -10 14 -1 9 6 -4 12 -2 12 3 0 6 -5 11 -11 11 -8 0 -8 5 1 15 10 12 10
15 -1 15 -9 0 -10 3 -4 8 6 4 11 15 11 25 2 14 -1 15 -12 6 -12 -10 -13 -9 -8
4 7 19 -14 51 -36 55 -8 1 -5 -6 9 -16 18 -14 21 -21 11 -27 -9 -5 -11 -4 -6
3 6 11 0 14 -20 11 -4 0 -10 3 -13 8 -3 4 -15 15 -26 23 -18 14 -19 13 -8 -1
18 -22 3 -33 -14 -11 -14 16 -14 16 -9 -2 6 -16 4 -17 -9 -6 -12 10 -15 10
-15 -1 0 -11 -2 -11 -10 1 -8 12 -11 13 -19 1 -7 -11 -9 -11 -14 0 -5 12 -7
12 -15 0 -8 -11 -10 -11 -15 0 -4 12 -7 11 -16 -1 -10 -13 -11 -13 -12 0 -1 8
-1 19 0 24 1 5 -5 4 -13 -3 -8 -7 -21 -9 -27 -5 -7 4 -9 3 -5 -4 3 -6 2 -13
-4 -17 -5 -3 -10 -2 -10 2 0 5 -10 14 -22 22 -18 10 -20 11 -10 0z m-96 -784
c0 -5 -5 -10 -11 -12 -8 -1 -7 0 0 4 8 4 7 8 -2 15 -11 8 -11 9 -1 6 8 -2 14
-8 14 -13z m898 -134 c0 -5 -9 -11 -20 -14 -17 -4 -18 -2 -9 14 9 18 29 18 29
0z m3400 -1 c0 -5 -8 -10 -17 -10 -15 0 -16 2 -3 10 19 12 20 12 20 0z m-3457
-15 c-3 -9 -8 -14 -10 -11 -3 3 -2 9 2 15 9 16 15 13 8 -4z m2072 5 c-3 -5
-12 -10 -18 -10 -7 0 -6 4 3 10 19 12 23 12 15 0z m46 -13 c-10 -9 -11 -8 -5
6 3 10 9 15 12 12 3 -3 0 -11 -7 -18z m-2236 -7 c-3 -5 -15 -15 -25 -20 -16
-8 -18 -8 -14 5 3 8 10 13 14 10 5 -3 11 -1 15 5 3 5 8 10 11 10 3 0 2 -4 -1
-10z m5855 -8 c0 -4 -13 -13 -30 -19 -38 -14 -39 -8 -2 11 32 18 32 18 32 8z
m230 -2 c0 -5 -5 -10 -11 -10 -5 0 -7 5 -4 10 3 6 8 10 11 10 2 0 4 -4 4 -10z
m-1905 -9 c3 -5 2 -12 -3 -15 -5 -3 -9 1 -9 9 0 17 3 19 12 6z m226 -8 c11
-15 11 -16 -1 -6 -9 9 -19 9 -34 2 -20 -10 -20 -10 -2 5 24 19 21 20 37 -1z
m414 8 c3 -5 2 -12 -3 -15 -5 -3 -9 1 -9 9 0 17 3 19 12 6z m1234 -4 c8 -10 7
-14 -4 -14 -8 0 -12 4 -9 8 2 4 -2 10 -8 12 -8 4 -9 6 -2 6 6 1 17 -5 23 -12z
m-1939 -7 c0 -5 -2 -10 -4 -10 -3 0 -8 5 -11 10 -3 6 -1 10 4 10 6 0 11 -4 11
-10z m-930 -75 c0 -12 -19 -12 -23 0 -4 9 -1 12 9 8 7 -3 14 -7 14 -8z m1775
-53 c-4 -5 -22 12 -45 43 -8 11 0 7 18 -9 17 -16 30 -32 27 -34z m-4081 -81
c-15 -10 -15 -32 -2 -50 12 -14 11 -15 -4 -2 -10 7 -16 22 -14 35 3 11 5 25 5
29 1 5 6 5 12 1 6 -3 7 -9 3 -13z m1941 -71 c3 -5 1 -10 -4 -10 -6 0 -11 5
-11 10 0 6 2 10 4 10 3 0 8 -4 11 -10z m-2849 -38 c-2 -4 -1 -14 5 -22 7 -13
9 -12 9 1 0 20 27 32 36 17 4 -6 3 -8 -3 -5 -5 3 -10 -1 -10 -9 0 -10 4 -11
10 -5 7 7 16 7 26 -2 14 -10 14 -10 3 4 -10 14 -10 18 3 23 9 3 14 2 12 -2 -3
-4 2 -14 11 -22 14 -13 15 -12 9 3 -3 9 -1 19 5 23 7 4 8 3 4 -4 -5 -8 1 -12
14 -12 14 0 19 4 14 13 -4 6 2 3 14 -7 12 -11 22 -15 22 -11 0 4 9 0 19 -9 15
-13 20 -14 24 -4 4 8 6 6 6 -5 1 -10 5 -16 10 -12 5 3 12 1 16 -5 4 -6 11 -7
17 -4 7 4 8 2 4 -4 -4 -7 -2 -12 4 -12 6 0 8 -4 5 -10 -3 -5 0 -10 8 -10 8 0
17 -7 20 -14 4 -11 1 -13 -11 -10 -14 4 -13 3 2 -6 14 -10 20 -10 26 0 5 9 9
9 14 1 4 -6 2 -11 -3 -11 -6 0 -11 -5 -11 -11 0 -6 8 -8 18 -5 15 5 15 5 1 -7
-14 -10 -14 -14 -2 -25 7 -7 11 -17 8 -22 -3 -4 2 -11 10 -14 13 -5 14 -2 4
17 -9 16 -9 19 0 11 18 -16 22 -56 8 -73 -9 -12 -9 -13 1 -7 8 5 12 -1 12 -22
0 -16 3 -32 7 -36 4 -4 8 -18 9 -31 1 -21 -1 -23 -20 -13 -20 10 -20 10 -5 -8
26 -30 29 -41 14 -41 -8 0 -12 4 -9 8 2 4 0 10 -4 13 -5 3 -8 -7 -6 -22 3 -38
3 -39 14 -22 6 9 10 10 10 3 0 -6 -5 -15 -10 -18 -6 -4 -8 -11 -5 -16 4 -5 -1
-12 -9 -15 -9 -3 -13 -11 -9 -17 4 -6 1 -7 -7 -2 -10 6 -12 3 -8 -13 4 -14 2
-20 -5 -15 -6 4 -8 0 -4 -10 7 -19 -8 -32 -19 -16 -5 8 -3 9 6 4 9 -5 11 -4 6
4 -10 16 -26 4 -19 -14 4 -11 1 -13 -13 -8 -17 6 -18 5 -4 -13 8 -10 11 -16 6
-12 -10 8 -57 -32 -50 -43 3 -5 -7 -4 -21 1 -17 7 -24 7 -20 0 3 -6 2 -10 -4
-10 -5 0 -12 6 -14 13 -3 6 -6 2 -6 -10 -1 -13 -6 -23 -12 -23 -6 0 -8 9 -4
23 5 19 5 20 -5 4 -6 -9 -17 -14 -23 -10 -7 3 -3 -4 8 -18 14 -17 15 -20 3
-10 -10 7 -23 9 -30 5 -19 -12 -48 -12 -55 -1 -3 6 -1 7 5 3 8 -5 10 -2 6 8
-5 13 -9 12 -26 -7 -11 -12 -17 -17 -14 -11 3 7 -1 15 -10 18 -9 4 -13 2 -8
-5 4 -8 -1 -9 -16 -4 -17 5 -21 4 -15 -6 3 -8 -3 -3 -14 10 -12 12 -18 28 -14
34 3 6 1 7 -5 3 -6 -3 -9 -15 -7 -26 2 -12 0 -18 -6 -15 -5 4 -7 11 -4 16 4 5
-1 9 -10 9 -10 0 -13 -5 -9 -12 5 -7 -8 -1 -27 14 -18 15 -33 32 -31 39 2 10
0 10 -12 0 -13 -11 -15 -10 -11 7 3 15 -1 19 -16 15 -11 -3 -19 0 -19 6 0 7 4
9 10 6 6 -3 7 1 4 10 -6 14 -8 14 -21 -2 -8 -10 -12 -13 -9 -7 7 15 -18 36
-30 26 -5 -4 0 4 11 17 11 14 14 21 8 17 -9 -5 -13 0 -13 13 0 20 -11 26 -35
21 -5 -1 -7 1 -3 5 4 4 3 18 -3 32 -6 16 -6 22 1 18 6 -3 10 -12 10 -20 0 -8
4 -17 10 -20 7 -4 7 3 0 19 -5 14 -6 26 -2 26 4 0 0 5 -8 10 -12 8 -13 13 -3
29 10 15 9 22 -1 30 -7 6 -17 7 -21 3 -5 -4 -5 -1 -1 6 5 7 15 11 23 7 13 -5
14 -3 3 10 -8 9 -14 27 -15 40 0 19 2 21 13 13 10 -9 12 -8 10 3 -2 8 -10 20
-18 26 -13 11 -12 12 4 6 13 -4 17 -2 14 8 -3 8 6 19 21 27 14 7 19 10 9 8 -9
-3 -18 2 -21 13 -2 10 1 18 9 18 7 0 10 -5 7 -10 -4 -6 -1 -7 6 -3 9 6 8 13
-6 29 -16 19 -16 20 0 8 15 -12 17 -11 17 3 0 9 4 16 10 16 5 0 7 -8 3 -17 -4
-11 2 -9 14 7 15 18 18 29 11 37 -6 7 -14 10 -19 7 -15 -9 -10 3 7 16 8 8 14
9 13 4 -4 -21 2 -28 11 -14 6 10 10 11 10 3 0 -7 5 -13 10 -13 7 0 7 6 1 19
-8 14 -7 22 4 31 9 7 18 10 22 7 3 -4 14 -2 24 3 13 7 22 6 34 -6 14 -15 15
-14 11 12 -5 27 -4 28 9 10 8 -11 16 -17 16 -13 1 4 3 12 4 17 1 6 3 12 4 15
0 3 4 5 7 5 3 0 3 -4 0 -8z m2091 -7 c0 -8 -3 -12 -7 -10 -4 2 -15 -2 -25 -9
-14 -10 -15 -15 -5 -21 9 -5 11 -4 6 3 -7 12 1 15 36 15 10 0 14 5 10 15 -3 9
-1 13 5 9 6 -4 14 -1 17 5 3 7 4 2 1 -12 -3 -14 -2 -19 1 -12 3 6 12 12 20 12
8 0 14 6 15 13 0 9 2 9 6 -1 4 -10 8 -10 21 0 12 10 14 10 8 1 -4 -8 -2 -13 8
-13 8 0 17 6 19 13 4 7 6 6 6 -5 1 -9 -4 -18 -10 -20 -6 -2 11 -5 38 -6 72 -4
87 -7 91 -23 3 -11 1 -11 -7 1 -6 8 -11 10 -11 4 0 -20 27 -37 36 -23 5 8 3 9
-6 4 -9 -5 -11 -4 -6 4 6 9 11 9 22 0 10 -8 11 -16 4 -23 -6 -8 -3 -17 10 -29
11 -9 20 -13 20 -7 0 5 -8 14 -17 19 -16 9 -16 10 -2 11 9 0 20 -7 23 -16 5
-14 9 -14 24 -3 15 13 16 12 4 -3 -7 -9 -9 -18 -5 -20 4 -3 3 -3 -4 -2 -7 2
-15 -2 -19 -8 -4 -6 -3 -8 4 -4 6 3 13 2 17 -4 4 -6 11 -8 16 -5 5 3 6 -1 3
-10 -4 -10 -2 -15 6 -13 7 2 14 -5 15 -15 2 -9 -1 -15 -6 -11 -5 3 -6 10 -3
16 4 7 2 8 -4 4 -17 -10 -15 -24 6 -30 9 -3 23 -15 29 -25 11 -17 10 -19 -7
-16 -11 2 -20 0 -20 -6 0 -5 6 -9 13 -9 6 0 12 -13 13 -30 1 -16 -3 -27 -7
-24 -5 3 -6 -2 -3 -10 3 -9 11 -13 17 -9 6 3 3 -4 -6 -17 -12 -18 -14 -28 -5
-43 9 -17 8 -19 -6 -14 -9 4 -16 2 -16 -3 0 -9 15 -14 33 -11 5 1 6 -3 2 -9
-3 -6 -11 -8 -16 -4 -6 3 -10 0 -8 -7 3 -26 -1 -39 -12 -39 -8 0 -8 4 0 14 9
11 9 16 -1 22 -7 4 -10 4 -6 -1 4 -4 3 -14 -2 -21 -8 -8 -6 -16 4 -27 14 -14
12 -16 -14 -26 -17 -5 -30 -15 -30 -20 0 -6 7 -8 15 -5 8 4 15 1 15 -6 0 -6
-4 -9 -9 -5 -5 3 -12 1 -16 -4 -3 -6 -13 -7 -23 -4 -14 5 -15 3 -4 -8 15 -16
16 -29 1 -29 -5 0 -7 5 -4 10 3 6 1 10 -4 10 -6 0 -11 -4 -11 -10 0 -5 -5 -10
-11 -10 -5 0 -7 6 -4 13 4 6 0 4 -8 -5 -8 -10 -18 -14 -22 -10 -5 4 -5 2 -1
-5 4 -7 14 -9 24 -6 13 4 13 2 -3 -10 -11 -8 -24 -12 -30 -8 -9 7 -28 7 -40 1
-3 -1 -9 -4 -15 -5 -5 -1 -12 -4 -15 -5 -3 -1 -9 -3 -14 -4 -5 0 -12 -4 -16
-8 -9 -8 16 -5 31 5 7 4 14 0 17 -8 4 -10 1 -12 -10 -8 -12 5 -14 3 -8 -8 7
-11 6 -12 -6 -3 -16 12 -29 12 -46 1 -8 -5 -13 -4 -13 2 0 6 5 11 10 11 6 0
10 5 10 11 0 8 -4 8 -15 -1 -8 -6 -20 -8 -26 -4 -7 4 -9 3 -5 -4 3 -6 2 -13
-4 -17 -5 -3 -10 -1 -10 6 0 8 -5 7 -17 -2 -15 -12 -16 -12 -10 4 4 10 3 16
-1 13 -5 -3 -24 4 -42 16 -20 12 -29 14 -22 6 6 -8 8 -19 4 -23 -4 -5 -1 -5 5
-1 7 4 21 3 30 -3 15 -8 13 -9 -11 -7 -18 2 -34 12 -43 27 -13 22 -14 23 -10
2 3 -15 1 -20 -9 -16 -8 3 -14 9 -14 15 0 5 -4 6 -10 3 -5 -3 -10 -1 -10 5 0
6 -5 8 -12 4 -6 -4 -8 -3 -4 4 3 6 2 13 -4 17 -6 4 -7 12 -4 18 4 7 4 9 -1 5
-4 -4 -14 -3 -21 3 -8 7 -14 6 -20 -2 -5 -8 -3 -9 6 -4 9 6 11 4 5 -5 -5 -8
-4 -11 2 -7 6 4 14 0 17 -9 6 -15 4 -15 -16 -2 -13 9 -24 21 -24 27 -3 22 -4
23 -21 10 -15 -11 -16 -11 -5 1 18 21 15 34 -5 19 -16 -12 -17 -12 -7 1 6 8
14 24 18 34 7 19 6 19 -13 2 -14 -13 -21 -14 -27 -5 -4 8 -3 10 4 5 7 -4 12
-5 12 -2 0 2 3 11 6 20 4 11 0 16 -12 16 -16 0 -17 -2 -4 -10 12 -7 10 -9 -7
-7 l-23 1 22 23 c20 21 14 33 -7 16 -6 -5 -7 -4 -3 1 12 15 9 28 -4 20 -7 -4
-8 -3 -4 4 4 7 2 12 -5 12 -7 0 -10 3 -7 6 4 3 17 1 30 -6 20 -10 21 -9 6 3
-14 11 -15 17 -5 28 10 12 10 12 -3 1 -14 -12 -39 -18 -27 -5 4 3 1 13 -6 22
-11 14 -10 14 6 2 19 -15 24 -2 5 17 -7 7 -8 12 -2 12 5 0 9 15 10 34 0 27 -3
33 -15 29 -10 -4 -9 0 4 10 11 8 22 14 26 12 9 -6 7 29 -3 42 -6 8 -3 16 10
24 19 12 19 14 4 26 -15 13 -15 13 6 8 17 -5 22 -2 23 14 2 36 4 40 19 53 12
11 12 11 2 -4 -9 -11 -10 -18 -2 -23 6 -4 13 6 16 24 4 17 10 28 15 25 5 -3 7
-11 3 -17 -3 -7 3 -2 14 10 11 12 23 19 28 15 5 -4 3 0 -4 10 -10 12 -10 18
-1 24 7 4 9 3 6 -3 -4 -6 0 -13 7 -16 10 -4 14 0 11 13 -3 13 1 18 14 15 9 -2
28 5 42 16 13 10 24 19 25 19 0 0 1 -7 1 -15z m1568 0 c6 -1 16 3 23 8 8 6 12
6 12 -2 0 -6 -5 -11 -11 -11 -5 0 -7 -5 -4 -10 4 -6 14 -1 24 11 14 17 20 19
26 9 5 -9 4 -11 -3 -6 -8 5 -10 2 -6 -8 5 -13 9 -12 26 7 14 16 18 17 14 5 -3
-12 -1 -15 10 -11 7 3 14 10 14 16 0 5 8 1 18 -11 14 -16 22 -18 36 -10 13 7
17 7 12 0 -3 -6 -2 -13 4 -17 6 -4 7 -11 4 -17 -5 -7 -2 -8 5 -4 7 5 10 15 6
23 -4 12 -3 13 8 5 8 -7 16 -9 19 -6 3 3 9 1 12 -5 4 -5 1 -13 -5 -17 -8 -5
-9 -3 -4 6 5 8 4 11 -3 6 -6 -4 -8 -14 -5 -22 4 -11 8 -12 13 -4 6 9 9 9 14 1
4 -6 12 -8 18 -5 5 4 4 -4 -3 -17 -11 -22 -11 -23 4 -10 14 11 17 11 18 0 1
-8 1 -17 0 -21 0 -5 4 -8 9 -8 6 0 10 6 10 13 0 6 5 4 11 -6 6 -9 15 -14 21
-11 7 4 8 2 4 -4 -4 -6 -12 -10 -19 -8 -7 1 -9 1 -4 -1 4 -3 5 -9 2 -14 -4 -5
1 -6 10 -3 12 5 14 2 8 -12 -6 -17 -5 -17 10 -6 14 12 16 11 15 -10 -1 -13 -6
-29 -12 -37 -9 -12 -8 -13 3 -6 11 6 13 4 8 -8 -3 -9 -1 -19 5 -23 6 -4 8 -3
5 2 -3 6 -1 16 4 24 7 11 8 8 5 -10 -3 -14 -5 -29 -5 -34 -1 -5 -8 -2 -18 5
-15 13 -15 12 -3 -8 11 -17 17 -19 27 -11 10 8 12 7 7 -6 -3 -9 -11 -16 -18
-16 -6 0 -5 -4 4 -9 8 -6 18 -7 24 -4 5 3 6 1 2 -6 -4 -7 -17 -9 -29 -6 -15 4
-18 3 -9 -3 19 -13 19 -16 3 -36 -12 -14 -12 -16 0 -11 11 4 15 -3 15 -28 0
-20 -5 -34 -13 -34 -7 0 -9 5 -5 11 12 19 10 33 -4 33 -10 0 -11 -4 -5 -10 7
-7 7 -15 0 -23 -13 -16 -2 -37 14 -27 7 4 6 -1 -2 -11 -8 -9 -21 -14 -30 -11
-8 3 -12 3 -8 -1 4 -4 2 -13 -4 -21 -6 -7 -8 -13 -3 -13 5 0 2 -5 -6 -10 -10
-6 -11 -10 -2 -10 6 0 12 -5 12 -11 0 -5 -4 -7 -10 -4 -5 3 -10 1 -10 -4 0 -6
-5 -11 -11 -11 -5 0 -7 4 -4 10 4 6 -1 7 -11 3 -15 -5 -15 -7 0 -15 9 -5 16
-14 16 -21 0 -8 -3 -8 -8 -2 -4 6 -13 11 -21 13 -11 2 -12 0 -3 -11 10 -12 8
-13 -14 -9 -21 4 -25 1 -22 -14 2 -10 -3 -19 -9 -20 -7 -1 -15 -3 -18 -4 -3
-1 -9 -3 -14 -4 -5 0 -13 -4 -17 -8 -4 -5 -17 -8 -29 -8 -11 0 -26 -5 -32 -11
-8 -8 -13 -7 -18 2 -6 8 -4 10 5 4 9 -5 11 -4 6 4 -6 9 -11 9 -22 0 -11 -9
-15 -8 -20 5 -6 15 -8 15 -20 -1 -7 -10 -14 -14 -14 -9 0 5 -8 2 -17 -5 -9 -8
-14 -9 -10 -3 4 7 0 15 -9 18 -10 4 -13 2 -9 -7 4 -6 0 -4 -8 5 -17 22 -32 11
-15 -11 8 -10 4 -9 -10 3 -12 11 -22 16 -22 11 0 -4 -6 -2 -13 4 -8 6 -18 7
-22 3 -5 -4 -5 -1 -1 6 10 17 -24 28 -35 11 -5 -8 -9 -9 -9 -3 0 5 5 15 12 22
9 9 5 11 -15 9 -14 -1 -25 1 -24 4 5 13 -26 37 -41 32 -14 -4 -15 -3 -2 6 9 6
18 7 24 1 6 -6 14 -10 19 -10 5 0 1 7 -7 16 -10 10 -24 13 -38 9 -20 -5 -21
-4 -5 5 9 6 17 16 17 23 0 7 -4 6 -10 -3 -9 -13 -10 -13 -11 0 -1 8 -1 21 0
28 1 6 -3 12 -9 12 -6 0 -8 -4 -5 -10 3 -5 2 -10 -4 -10 -5 0 -13 5 -16 10 -3
6 -1 10 4 10 6 0 11 7 11 15 0 8 5 15 12 15 6 0 8 3 5 6 -4 4 -15 1 -24 -7
-10 -7 -15 -9 -11 -5 4 5 0 14 -9 21 -13 9 -13 14 -3 20 9 6 11 4 5 -5 -5 -9
-4 -11 4 -6 6 4 9 12 6 17 -4 5 0 9 7 9 7 1 3 9 -11 20 -13 11 -17 20 -10 20
10 0 10 3 1 12 -8 8 -9 15 -1 25 9 10 8 13 -2 13 -8 0 -6 5 6 13 14 11 15 16
5 22 -9 6 -11 4 -5 -5 6 -9 4 -11 -5 -5 -10 6 -7 13 11 27 13 11 19 17 13 14
-7 -3 -15 1 -18 10 -4 11 -2 15 7 11 19 -7 39 27 25 41 -9 9 -7 17 7 32 15 16
21 18 34 7 13 -10 14 -10 5 3 -16 23 -15 60 1 54 8 -3 11 -13 9 -22 -5 -14 -4
-14 6 1 6 9 15 15 21 12 5 -4 9 -2 9 4 0 5 -6 11 -12 14 -9 3 -7 10 6 23 11
11 15 12 9 4 -10 -13 -8 -16 6 -16 12 0 18 7 17 21 -1 14 4 19 18 17 12 -2 15
1 11 8 -6 9 -2 9 15 0 14 -7 20 -8 16 -1 -4 6 4 9 24 6 16 -2 32 0 35 5 3 5
-7 7 -22 5 -16 -2 -22 -2 -15 1 6 3 9 11 6 16 -5 7 -2 8 7 2 8 -5 19 -9 24 -9z
m940 -5 c3 -6 -1 -7 -9 -4 -18 7 -21 14 -7 14 6 0 13 -4 16 -10z m-1111 -76
c3 -8 2 -12 -4 -9 -6 3 -10 10 -10 16 0 14 7 11 14 -7z m1986 6 c0 -5 -5 -10
-11 -10 -5 0 -7 5 -4 10 3 6 8 10 11 10 2 0 4 -4 4 -10z m-5646 -32 c-3 -4
-11 -5 -19 -1 -21 7 -19 12 4 10 11 0 18 -5 15 -9z m5638 5 c-6 -2 -10 -8 -8
-12 3 -4 -1 -8 -9 -8 -11 0 -12 4 -4 14 6 7 17 13 23 12 7 0 6 -2 -2 -6z
m-6160 -18 c0 -5 -5 -10 -11 -12 -8 -1 -7 0 0 4 8 4 7 8 -2 15 -11 8 -11 9 -1
6 8 -2 14 -8 14 -13z m2548 -59 c0 -2 -8 -10 -17 -17 -16 -13 -17 -12 -4 4 13
16 21 21 21 13z m1570 -20 c0 -3 -4 -8 -10 -11 -5 -3 -10 -1 -10 4 0 6 5 11
10 11 6 0 10 -2 10 -4z m-1576 -35 c3 -5 -1 -11 -9 -14 -9 -4 -12 -1 -8 9 6
16 10 17 17 5z m2946 -83 c0 -4 -4 -8 -9 -8 -6 0 -12 4 -15 8 -3 5 1 9 9 9 8
0 15 -4 15 -9z m-729 -55 c13 -16 12 -17 -3 -4 -10 7 -18 15 -18 17 0 8 8 3
21 -13z m-671 -23 c0 -5 -5 -10 -11 -10 -5 0 -7 5 -4 10 3 6 8 10 11 10 2 0 4
-4 4 -10z m-3630 -96 c0 -8 -19 -13 -24 -6 -3 5 1 9 9 9 8 0 15 -2 15 -3z
m4245 -24 c-3 -5 -1 -10 6 -10 7 0 10 -3 6 -6 -9 -9 -28 6 -22 17 4 5 8 9 11
9 3 0 2 -4 -1 -10z m-1693 -139 c-4 -10 -7 -11 -10 -3 -2 7 -9 9 -14 6 -6 -4
-8 -3 -5 3 10 16 36 11 29 -6z m518 -100 c-14 -27 -27 -34 -36 -20 -4 8 -3 9
4 5 7 -4 12 -1 12 8 0 12 9 20 28 25 1 1 -2 -8 -8 -18z m-1220 -86 c0 -2 -6
-5 -13 -8 -8 -3 -14 1 -14 8 0 7 6 11 14 8 7 -3 13 -6 13 -8z m115 -96 c-4 -5
-1 -9 6 -9 6 0 18 -8 25 -17 7 -10 14 -13 14 -6 0 6 7 10 15 9 19 -3 29 -13
13 -13 -7 0 -17 -2 -23 -4 -5 -2 -27 8 -48 23 -24 16 -34 28 -25 31 17 6 30
-2 23 -14z m825 -34 c-7 -9 -15 -13 -17 -11 -6 6 20 36 26 30 2 -2 -2 -10 -9
-19z m-2826 -36 c-3 -5 -14 -5 -25 1 -23 13 -25 22 -2 13 12 -5 14 -3 8 8 -8
12 -6 12 8 0 9 -7 14 -17 11 -22z m427 -36 c13 -16 12 -17 -3 -4 -10 7 -18 15
-18 17 0 8 8 3 21 -13z m49 13 c0 -2 -8 -10 -17 -17 -16 -13 -17 -12 -4 4 13
16 21 21 21 13z m27 -28 c-3 -8 -6 -5 -6 6 -1 11 2 17 5 13 3 -3 4 -12 1 -19z
m1878 4 c-3 -3 -11 0 -18 7 -9 10 -8 11 6 5 10 -3 15 -9 12 -12z m1945 -136
c0 -2 -7 -7 -16 -10 -8 -3 -12 -2 -9 4 6 10 25 14 25 6z m-985 -348 c5 4 5 1
1 -6 -4 -7 -1 -15 8 -18 9 -3 16 -11 16 -17 0 -6 -16 4 -35 23 -19 19 -35 38
-35 43 0 6 8 0 19 -11 10 -12 22 -18 26 -14z m93 -61 c18 6 17 5 -8 -14 -13
-10 -16 -8 -17 10 0 12 1 17 4 10 2 -7 12 -9 21 -6z m809 -122 c0 -8 -6 -16
-14 -19 -11 -4 -11 -1 -3 14 13 24 17 25 17 5z m683 11 c0 -3 -4 -8 -10 -11
-5 -3 -10 -1 -10 4 0 6 5 11 10 11 6 0 10 -2 10 -4z"/>
<path d="M2539 5417 c7 -9 17 -15 21 -12 5 3 11 0 13 -5 3 -6 4 -5 3 2 -2 7
-7 13 -12 13 -5 0 -16 4 -24 10 -13 8 -13 7 -1 -8z"/>
<path d="M2516 5407 c3 -10 9 -15 12 -12 3 3 0 11 -7 18 -10 9 -11 8 -5 -6z"/>
<path d="M2245 5390 c-2 -4 2 -13 10 -20 13 -11 14 -10 9 5 -5 12 -4 16 4 11
6 -3 13 -3 16 2 2 4 -4 8 -14 9 -11 1 -22 -2 -25 -7z"/>
<path d="M2595 5380 c-2 -3 5 -7 16 -7 10 -1 19 2 19 6 0 9 -29 10 -35 1z"/>
<path d="M2635 5360 c-3 -5 -1 -10 4 -10 6 0 11 5 11 10 0 6 -2 10 -4 10 -3 0
-8 -4 -11 -10z"/>
<path d="M2756 5112 c-3 -5 1 -15 8 -21 11 -10 14 -9 12 3 -3 21 -13 29 -20
18z"/>
<path d="M2165 4900 c3 -5 8 -10 11 -10 2 0 4 5 4 10 0 6 -5 10 -11 10 -5 0
-7 -4 -4 -10z"/>
<path d="M2636 4839 c2 -4 -4 -12 -13 -18 -10 -6 -13 -11 -7 -11 6 0 18 8 27
18 14 15 15 19 2 19 -8 0 -12 -4 -9 -8z"/>
<path d="M2266 4816 c3 -8 13 -17 22 -21 13 -5 13 -2 -3 15 -21 24 -26 25 -19
6z"/>
<path d="M2500 4781 c0 -7 -5 -9 -12 -5 -7 5 -8 3 -3 -5 5 -9 10 -10 18 -2 6
6 8 14 4 18 -4 3 -7 1 -7 -6z"/>
<path d="M4238 5223 c7 -3 16 -2 19 1 4 3 -2 6 -13 5 -11 0 -14 -3 -6 -6z"/>
<path d="M4836 5202 c-2 -4 4 -8 14 -8 10 0 16 4 14 8 -3 4 -9 8 -14 8 -5 0
-11 -4 -14 -8z"/>
<path d="M4290 4880 c0 -5 5 -10 11 -10 5 0 7 5 4 10 -3 6 -8 10 -11 10 -2 0
-4 -4 -4 -10z"/>
<path d="M6154 5418 c-4 -7 -4 -10 1 -6 4 4 14 0 22 -10 13 -15 13 -15 3 6
-12 25 -16 27 -26 10z"/>
<path d="M5866 4842 c-3 -5 1 -9 9 -9 8 0 15 4 15 9 0 4 -4 8 -9 8 -6 0 -12
-4 -15 -8z"/>
<path d="M5954 4799 c1 -7 10 -13 19 -15 9 -1 15 2 11 7 -3 5 -9 7 -14 4 -4
-3 -11 0 -13 5 -3 6 -4 5 -3 -1z"/>
<path d="M6195 4799 c-10 -15 3 -25 16 -12 7 7 7 13 1 17 -6 3 -14 1 -17 -5z"/>
<path d="M6155 4790 c-3 -5 -1 -10 4 -10 6 0 11 5 11 10 0 6 -2 10 -4 10 -3 0
-8 -4 -11 -10z"/>
<path d="M1650 6573 c0 -15 18 -35 23 -27 3 5 -1 15 -9 22 -8 7 -14 9 -14 5z"/>
<path d="M3257 6555 c3 -8 9 -12 14 -9 12 7 11 11 -5 17 -10 4 -13 1 -9 -8z"/>
<path d="M1635 6540 c3 -5 8 -10 11 -10 2 0 4 5 4 10 0 6 -5 10 -11 10 -5 0
-7 -4 -4 -10z"/>
<path d="M1651 6516 c-7 -8 -8 -17 -3 -20 6 -3 15 1 21 8 7 8 8 17 3 20 -6 3
-15 -1 -21 -8z"/>
<path d="M1648 6468 c10 -13 10 -17 0 -20 -8 -3 -7 -6 4 -10 20 -8 18 17 -2
35 -12 10 -12 9 -2 -5z"/>
<path d="M3236 6347 c3 -10 9 -15 12 -12 3 3 0 11 -7 18 -10 9 -11 8 -5 -6z"/>
<path d="M1649 6323 c-13 -16 -12 -17 4 -4 9 7 17 15 17 17 0 8 -8 3 -21 -13z"/>
<path d="M1650 6253 c0 -15 18 -35 23 -27 3 5 -1 15 -9 22 -8 7 -14 9 -14 5z"/>
<path d="M1635 6220 c3 -5 8 -10 11 -10 2 0 4 5 4 10 0 6 -5 10 -11 10 -5 0
-7 -4 -4 -10z"/>
<path d="M1651 6196 c-7 -8 -8 -17 -3 -20 6 -3 15 1 21 8 7 8 8 17 3 20 -6 3
-15 -1 -21 -8z"/>
<path d="M3240 6160 c8 -5 20 -10 25 -10 6 0 3 5 -5 10 -8 5 -19 10 -25 10 -5
0 -3 -5 5 -10z"/>
<path d="M3257 6075 c3 -8 9 -12 14 -9 12 7 11 11 -5 17 -10 4 -13 1 -9 -8z"/>
<path d="M1640 6065 c0 -2 10 -10 23 -16 20 -11 21 -11 8 4 -13 16 -31 23 -31
12z"/>
<path d="M3236 5867 c3 -10 9 -15 12 -12 3 3 0 11 -7 18 -10 9 -11 8 -5 -6z"/>
<path d="M2605 5841 c-3 -5 -2 -12 3 -15 5 -3 9 1 9 9 0 17 -3 19 -12 6z"/>
<path d="M4526 5832 c-3 -5 1 -9 9 -9 8 0 12 4 9 9 -3 4 -7 8 -9 8 -2 0 -6 -4
-9 -8z"/>
<path d="M5726 5795 c4 -8 11 -15 16 -15 6 0 5 6 -2 15 -7 8 -14 15 -16 15 -2
0 -1 -7 2 -15z"/>
<path d="M6190 5801 c0 -6 4 -13 10 -16 6 -3 7 1 4 9 -7 18 -14 21 -14 7z"/>
<path d="M6827 5793 c3 -7 6 -13 8 -13 2 0 5 6 8 13 3 8 -1 14 -8 14 -7 0 -11
-6 -8 -14z"/>
<path d="M2790 5789 c0 -5 5 -7 10 -4 6 3 10 8 10 11 0 2 -4 4 -10 4 -5 0 -10
-5 -10 -11z"/>
<path d="M6947 5789 c7 -7 15 -10 18 -7 3 3 -2 9 -12 12 -14 6 -15 5 -6 -5z"/>
<path d="M7107 5789 c7 -7 15 -10 18 -7 3 3 -2 9 -12 12 -14 6 -15 5 -6 -5z"/>
<path d="M8021 5785 c0 -5 3 -16 8 -23 6 -10 11 -9 22 4 12 16 12 17 -3 11 -9
-3 -19 -1 -22 6 -2 7 -5 8 -5 2z"/>
<path d="M1650 5773 c0 -15 18 -35 23 -27 3 5 -1 15 -9 22 -8 7 -14 9 -14 5z"/>
<path d="M4875 5760 c3 -5 8 -10 11 -10 2 0 4 5 4 10 0 6 -5 10 -11 10 -5 0
-7 -4 -4 -10z"/>
<path d="M7286 5761 c-3 -4 5 -18 18 -30 18 -17 26 -19 31 -10 5 7 4 10 -2 6
-11 -7 -45 28 -36 37 4 3 4 6 0 6 -3 0 -8 -4 -11 -9z"/>
<path d="M6295 5751 c-3 -5 -2 -12 3 -15 5 -3 9 1 9 9 0 17 -3 19 -12 6z"/>
<path d="M1635 5740 c3 -5 8 -10 11 -10 2 0 4 5 4 10 0 6 -5 10 -11 10 -5 0
-7 -4 -4 -10z"/>
<path d="M6410 5739 c0 -5 5 -7 10 -4 6 3 10 8 10 11 0 2 -4 4 -10 4 -5 0 -10
-5 -10 -11z"/>
<path d="M1651 5716 c-7 -8 -8 -17 -3 -20 6 -3 15 1 21 8 7 8 8 17 3 20 -6 3
-15 -1 -21 -8z"/>
<path d="M2945 5720 c-3 -6 1 -7 9 -4 18 7 21 14 7 14 -6 0 -13 -4 -16 -10z"/>
<path d="M6275 5720 c3 -5 8 -10 11 -10 2 0 4 5 4 10 0 6 -5 10 -11 10 -5 0
-7 -4 -4 -10z"/>
<path d="M2186 5693 c-6 -14 -5 -15 5 -6 7 7 10 15 7 18 -3 3 -9 -2 -12 -12z"/>
<path d="M3016 5687 c3 -10 9 -15 12 -12 3 3 0 11 -7 18 -10 9 -11 8 -5 -6z"/>
<path d="M5015 5690 c3 -5 8 -10 11 -10 2 0 4 5 4 10 0 6 -5 10 -11 10 -5 0
-7 -4 -4 -10z"/>
<path d="M3240 5680 c8 -5 20 -10 25 -10 6 0 3 5 -5 10 -8 5 -19 10 -25 10 -5
0 -3 -5 5 -10z"/>
<path d="M4016 5681 c-4 -5 -2 -12 3 -15 5 -4 12 -2 15 3 4 5 2 12 -3 15 -5 4
-12 2 -15 -3z"/>
<path d="M5070 5671 c0 -6 4 -13 10 -16 6 -3 7 1 4 9 -7 18 -14 21 -14 7z"/>
<path d="M1643 5628 c1 -15 6 -23 11 -18 4 4 4 16 -2 26 -9 16 -10 14 -9 -8z"/>
<path d="M3257 5595 c3 -8 9 -12 14 -9 12 7 11 11 -5 17 -10 4 -13 1 -9 -8z"/>
<path d="M3947 5603 c-4 -3 -7 -11 -7 -17 0 -6 5 -5 12 2 6 6 9 14 7 17 -3 3
-9 2 -12 -2z"/>
<path d="M1640 5585 c0 -2 10 -10 23 -16 20 -11 21 -11 8 4 -13 16 -31 23 -31
12z"/>
<path d="M5148 5578 c5 -5 16 -8 23 -6 8 3 3 7 -10 11 -17 4 -21 3 -13 -5z"/>
<path d="M5410 5566 c0 -2 7 -7 16 -10 8 -3 12 -2 9 4 -6 10 -25 14 -25 6z"/>
<path d="M7879 5473 c-13 -16 -12 -17 4 -4 16 13 21 21 13 21 -2 0 -10 -8 -17
-17z"/>
<path d="M3195 5469 c-4 -6 -5 -12 -2 -15 2 -3 7 2 10 11 7 17 1 20 -8 4z"/>
<path d="M3245 5460 c-8 -13 3 -30 18 -29 9 0 9 2 0 6 -7 2 -13 9 -13 14 0 6
5 7 12 3 7 -4 8 -3 4 4 -9 15 -13 15 -21 2z"/>
<path d="M1640 5425 c0 -2 10 -10 23 -16 20 -11 21 -11 8 4 -13 16 -31 23 -31
12z"/>
<path d="M8249 5248 c0 -2 -2 -13 -3 -25 -2 -19 0 -21 12 -11 9 8 10 14 3 16
-6 2 -9 8 -5 13 3 5 3 9 0 9 -3 0 -6 -1 -7 -2z"/>
<path d="M7087 5225 c6 -11 9 -28 8 -38 -2 -9 1 -15 5 -12 11 7 4 45 -11 59
-9 8 -9 6 -2 -9z"/>
<path d="M1650 5133 c0 -15 18 -35 23 -27 3 5 -1 15 -9 22 -8 7 -14 9 -14 5z"/>
<path d="M1635 5100 c3 -5 8 -10 11 -10 2 0 4 5 4 10 0 6 -5 10 -11 10 -5 0
-7 -4 -4 -10z"/>
<path d="M1651 5076 c-7 -8 -8 -17 -3 -20 6 -3 15 1 21 8 7 8 8 17 3 20 -6 3
-15 -1 -21 -8z"/>
<path d="M1643 4988 c1 -15 6 -23 11 -18 4 4 4 16 -2 26 -9 16 -10 14 -9 -8z"/>
<path d="M7230 4950 c0 -5 5 -10 11 -10 5 0 7 5 4 10 -3 6 -8 10 -11 10 -2 0
-4 -4 -4 -10z"/>
<path d="M1640 4945 c0 -2 10 -10 23 -16 20 -11 21 -11 8 4 -13 16 -31 23 -31
12z"/>
<path d="M7252 4931 c-11 -7 -11 -9 0 -14 9 -3 15 1 15 9 0 8 -1 14 -1 14 -1
0 -7 -4 -14 -9z"/>
<path d="M1657 4853 c-10 -9 -9 -23 1 -23 5 0 9 7 9 15 0 17 -1 18 -10 8z"/>
<path d="M3243 4787 c0 -8 6 -14 14 -14 9 0 10 4 2 14 -6 7 -12 13 -14 13 -1
0 -2 -6 -2 -13z"/>
<path d="M7333 4765 c0 -8 4 -12 9 -9 5 3 6 10 3 15 -9 13 -12 11 -12 -6z"/>
<path d="M1657 4693 c-10 -9 -9 -23 1 -23 5 0 9 7 9 15 0 17 -1 18 -10 8z"/>
<path d="M3236 4638 c3 -4 9 -8 15 -8 5 0 9 4 9 8 0 5 -7 9 -15 9 -8 0 -12 -4
-9 -9z"/>
<path d="M5154 4628 c-4 -7 -4 -10 1 -6 4 4 16 3 26 -3 11 -5 19 -7 19 -5 0 3
-9 10 -19 16 -15 7 -22 7 -27 -2z"/>
<path d="M5156 4593 c-6 -14 -5 -15 5 -6 7 7 10 15 7 18 -3 3 -9 -2 -12 -12z"/>
<path d="M2176 4527 c3 -10 9 -15 12 -12 3 3 0 11 -7 18 -10 9 -11 8 -5 -6z"/>
<path d="M4026 4525 c4 -8 11 -15 16 -15 6 0 5 6 -2 15 -7 8 -14 15 -16 15 -2
0 -1 -7 2 -15z"/>
<path d="M2950 4501 c0 -5 7 -12 16 -15 14 -5 15 -4 4 9 -14 17 -20 19 -20 6z"/>
<path d="M1649 4483 c-13 -16 -12 -17 4 -4 9 7 17 15 17 17 0 8 -8 3 -21 -13z"/>
<path d="M2927 4493 c-11 -11 -8 -20 7 -20 8 0 12 6 9 14 -6 15 -7 15 -16 6z"/>
<path d="M2106 4481 c-3 -5 2 -15 12 -22 15 -12 16 -12 5 2 -7 9 -10 19 -6 22
3 4 4 7 0 7 -3 0 -8 -4 -11 -9z"/>
<path d="M1829 4438 c-6 -15 -4 -46 3 -42 4 3 6 9 3 14 -3 4 0 10 7 12 9 3 9
6 0 12 -7 4 -13 6 -13 4z"/>
<path d="M3425 4430 c-3 -5 -1 -18 5 -27 10 -16 11 -16 6 -1 -3 9 0 18 7 21 8
2 8 5 0 10 -7 4 -14 3 -18 -3z"/>
<path d="M2011 4416 c-9 -11 -9 -16 0 -22 8 -5 9 -3 4 6 -6 10 -4 12 8 7 11
-4 14 -2 10 9 -6 17 -8 17 -22 0z"/>
<path d="M2336 4419 c6 -11 44 -12 44 -1 0 4 -11 8 -25 8 -14 1 -22 -2 -19 -7z"/>
<path d="M3572 4417 c-10 -12 -10 -17 -1 -23 8 -5 9 -3 4 6 -6 10 -4 12 8 7 9
-3 19 -1 23 5 4 6 3 8 -4 4 -5 -3 -12 -1 -14 5 -2 7 -8 6 -16 -4z"/>
<path d="M1875 4409 c-4 -6 -4 -13 -1 -16 3 -4 6 -1 6 7 0 10 4 10 18 -1 15
-13 16 -12 3 4 -16 20 -18 20 -26 6z"/>
<path d="M3475 4409 c-4 -6 -4 -13 -1 -16 3 -4 6 -1 6 7 0 10 4 10 18 -1 15
-13 16 -12 3 4 -16 20 -18 20 -26 6z"/>
<path d="M7826 4412 c-3 -5 1 -9 9 -9 8 0 12 4 9 9 -3 4 -7 8 -9 8 -2 0 -6 -4
-9 -8z"/>
<path d="M2670 4381 c0 -6 4 -13 10 -16 6 -3 7 1 4 9 -7 18 -14 21 -14 7z"/>
<path d="M5835 4380 c-3 -5 -1 -10 4 -10 6 0 11 5 11 10 0 6 -2 10 -4 10 -3 0
-8 -4 -11 -10z"/>
<path d="M7276 4382 c-3 -5 1 -9 9 -9 8 0 12 4 9 9 -3 4 -7 8 -9 8 -2 0 -6 -4
-9 -8z"/>
<path d="M7805 4380 c-3 -6 1 -7 9 -4 18 7 21 14 7 14 -6 0 -13 -4 -16 -10z"/>
<path d="M5906 4368 c3 -4 9 -8 15 -8 5 0 9 4 9 8 0 5 -7 9 -15 9 -8 0 -12 -4
-9 -9z"/>
<path d="M2495 4360 c3 -5 8 -10 11 -10 2 0 4 5 4 10 0 6 -5 10 -11 10 -5 0
-7 -4 -4 -10z"/>
<path d="M7253 4315 c0 -8 4 -12 9 -9 5 3 6 10 3 15 -9 13 -12 11 -12 -6z"/>
<path d="M7773 4292 c-1 -22 0 -24 9 -8 6 10 6 22 2 26 -5 5 -10 -3 -11 -18z"/>
<path d="M6396 4293 c-6 -14 -5 -15 5 -6 7 7 10 15 7 18 -3 3 -9 -2 -12 -12z"/>
<path d="M6860 4258 c0 -4 4 -8 9 -8 6 0 12 4 15 8 3 5 -1 9 -9 9 -8 0 -15 -4
-15 -9z"/>
<path d="M5720 4160 c17 -16 36 -30 43 -29 7 0 2 5 -10 11 -13 6 -23 17 -23
23 0 11 -21 25 -36 25 -3 0 9 -13 26 -30z"/>
<path d="M7675 4120 c3 -5 8 -10 11 -10 2 0 4 5 4 10 0 6 -5 10 -11 10 -5 0
-7 -4 -4 -10z"/>
<path d="M6235 4110 c3 -5 8 -10 11 -10 2 0 4 5 4 10 0 6 -5 10 -11 10 -5 0
-7 -4 -4 -10z"/>
<path d="M5364 4075 c-4 -8 -10 -13 -14 -10 -11 7 -6 -22 5 -32 4 -4 5 -2 1 5
-4 6 -2 12 3 12 6 0 11 6 11 14 0 8 6 17 13 19 9 4 9 6 -1 6 -7 1 -15 -6 -18
-14z"/>
<path d="M6780 4000 c-8 -5 -10 -10 -5 -10 6 0 17 5 25 10 8 5 11 10 5 10 -5
0 -17 -5 -25 -10z"/>
<path d="M7035 3931 c-3 -5 -2 -12 3 -15 5 -3 9 1 9 9 0 17 -3 19 -12 6z"/>
<path d="M6575 3806 c-10 -7 -20 -21 -21 -31 -1 -9 1 -14 4 -10 4 4 7 12 7 18
1 7 6 11 12 10 6 -1 14 4 17 12 7 18 5 19 -19 1z"/>
<path d="M7510 3789 c0 -5 5 -7 10 -4 6 3 10 8 10 11 0 2 -4 4 -10 4 -5 0 -10
-5 -10 -11z"/>
<path d="M6510 3760 c0 -5 5 -10 11 -10 5 0 7 5 4 10 -3 6 -8 10 -11 10 -2 0
-4 -4 -4 -10z"/>
<path d="M7460 3745 c-7 -8 -9 -15 -6 -15 4 0 14 7 22 15 9 8 11 15 6 15 -5 0
-15 -7 -22 -15z"/>
<path d="M5785 3690 c-4 -6 1 -7 11 -3 13 5 15 3 9 -7 -5 -9 -4 -11 4 -6 6 4
9 12 6 17 -8 12 -22 12 -30 -1z"/>
<path d="M6286 3687 c3 -10 9 -15 12 -12 3 3 0 11 -7 18 -10 9 -11 8 -5 -6z"/>
</g>
</svg>
